M48
;Layer_Color=9474304
;FILE_FORMAT=2:5
INCH,LZ
;TYPE=PLATED
T01F00S00C0.02000
%
T01
X19645Y00243
X19629Y00289
X19645Y00335
X17766
X1775Y00289
X17766Y00243
X17677
X17661Y00289
X17677Y00335
X15798
X15782Y00289
X15798Y00243
X15709
X15693Y00289
X15709Y00335
X1383
X13814Y00289
X1383Y00243
X13741
X13725Y00289
X13741Y00335
X11862
X11846Y00289
X11862Y00243
X11773
X11757Y00289
X11773Y00335
X09894
X09878Y00289
X09894Y00243
X09805
X09789Y00289
X09805Y00335
X07926
X0791Y00289
X07926Y00243
X07837
X07821Y00289
X07837Y00335
X05958
X05942Y00289
X05958Y00243
X05869
X05853Y00289
X05869Y00335
X0399
X03974Y00289
X0399Y00243
X03901
X03885Y00289
X03901Y00335
X02022
X02006Y00289
X02022Y00243
X01933
X01917Y00289
X01933Y00335
X00054
X00038Y00289
X00054Y00243
M30
