M48
;Layer_Color=9474304
;FILE_FORMAT=2:5
INCH,LZ
;TYPE=NON_PLATED
T02F00S00C0.03000
%
T02
X17712Y00026
Y0018
Y004
Y00554
X15744
Y004
Y0018
Y00026
X13776
Y0018
Y004
Y00554
X11808
Y004
Y0018
Y00026
X0984
Y0018
Y004
Y00554
X07872
Y004
Y0018
Y00026
X05904
Y0018
Y004
Y00554
X03936
Y004
Y0018
Y00026
X01968
Y0018
Y004
Y00554
M30
