G04*
G04 #@! TF.GenerationSoftware,Altium Limited,Altium Designer,25.8.1 (18)*
G04*
G04 Layer_Color=8421504*
%FSLAX25Y25*%
%MOIN*%
G70*
G04*
G04 #@! TF.SameCoordinates,390A0C2E-5F43-43DE-B89E-D80C0B79A47B*
G04*
G04*
G04 #@! TF.FilePolarity,Positive*
G04*
G01*
G75*
%ADD14R,0.06800X0.05400*%
%ADD15R,0.05500X0.04800*%
D14*
X361800Y32300D02*
D03*
Y21100D02*
D03*
X262800Y32300D02*
D03*
Y21100D02*
D03*
X328800Y25700D02*
D03*
Y36900D02*
D03*
X229800Y25700D02*
D03*
Y36900D02*
D03*
X558600Y32300D02*
D03*
Y21100D02*
D03*
X459600Y32300D02*
D03*
Y21100D02*
D03*
X525600Y25700D02*
D03*
Y36900D02*
D03*
X426600Y25700D02*
D03*
Y36900D02*
D03*
X755400Y32300D02*
D03*
Y21100D02*
D03*
X656400Y32300D02*
D03*
Y21100D02*
D03*
X722400Y25700D02*
D03*
Y36900D02*
D03*
X623400Y25700D02*
D03*
Y36900D02*
D03*
X952200Y32300D02*
D03*
Y21100D02*
D03*
X853200Y32300D02*
D03*
Y21100D02*
D03*
X919200Y25700D02*
D03*
Y36900D02*
D03*
X820200Y25700D02*
D03*
Y36900D02*
D03*
X1149000Y32300D02*
D03*
Y21100D02*
D03*
X1050000Y32300D02*
D03*
Y21100D02*
D03*
X1116000Y25700D02*
D03*
Y36900D02*
D03*
X1017000Y25700D02*
D03*
Y36900D02*
D03*
X1345800Y32300D02*
D03*
Y21100D02*
D03*
X1246800Y32300D02*
D03*
Y21100D02*
D03*
X1312800Y25700D02*
D03*
Y36900D02*
D03*
X1213800Y25700D02*
D03*
Y36900D02*
D03*
X1542600Y32300D02*
D03*
Y21100D02*
D03*
X1443600Y32300D02*
D03*
Y21100D02*
D03*
X1509600Y25700D02*
D03*
Y36900D02*
D03*
X1410600Y25700D02*
D03*
Y36900D02*
D03*
X1739400Y32300D02*
D03*
Y21100D02*
D03*
X1640400Y32300D02*
D03*
Y21100D02*
D03*
X1706400Y25700D02*
D03*
Y36900D02*
D03*
X1607400Y25700D02*
D03*
Y36900D02*
D03*
X1936200Y32300D02*
D03*
Y21100D02*
D03*
X1903200Y25700D02*
D03*
Y36900D02*
D03*
X1804200Y25700D02*
D03*
Y36900D02*
D03*
X1837200Y32300D02*
D03*
Y21100D02*
D03*
X165000Y32300D02*
D03*
Y21100D02*
D03*
X66000Y32300D02*
D03*
Y21100D02*
D03*
X132000Y25700D02*
D03*
Y36900D02*
D03*
X33000Y25700D02*
D03*
Y36900D02*
D03*
D15*
X372250Y32200D02*
D03*
X349350D02*
D03*
X339450Y25800D02*
D03*
X316550D02*
D03*
X306650D02*
D03*
X283750D02*
D03*
X306650Y32200D02*
D03*
X283750D02*
D03*
X273850D02*
D03*
X250950D02*
D03*
X241050Y25800D02*
D03*
X218150D02*
D03*
X349350D02*
D03*
X372250D02*
D03*
X250950D02*
D03*
X273850D02*
D03*
X316550Y32200D02*
D03*
X339450D02*
D03*
X218150D02*
D03*
X241050D02*
D03*
X569050D02*
D03*
X546150D02*
D03*
X536250Y25800D02*
D03*
X513350D02*
D03*
X503450Y32200D02*
D03*
X480550D02*
D03*
X503450Y25800D02*
D03*
X480550D02*
D03*
X470650Y32200D02*
D03*
X447750D02*
D03*
X437850Y25800D02*
D03*
X414950D02*
D03*
X546150D02*
D03*
X569050D02*
D03*
X447750D02*
D03*
X470650D02*
D03*
X513350Y32200D02*
D03*
X536250D02*
D03*
X414950D02*
D03*
X437850D02*
D03*
X765850D02*
D03*
X742950D02*
D03*
X733050Y25800D02*
D03*
X710150D02*
D03*
X700250D02*
D03*
X677350D02*
D03*
X700250Y32200D02*
D03*
X677350D02*
D03*
X667450D02*
D03*
X644550D02*
D03*
X634650Y25800D02*
D03*
X611750D02*
D03*
X742950D02*
D03*
X765850D02*
D03*
X644550D02*
D03*
X667450D02*
D03*
X710150Y32200D02*
D03*
X733050D02*
D03*
X611750D02*
D03*
X634650D02*
D03*
X962650D02*
D03*
X939750D02*
D03*
X929850Y25800D02*
D03*
X906950D02*
D03*
X897050Y32200D02*
D03*
X874150D02*
D03*
X897050Y25800D02*
D03*
X874150D02*
D03*
X864250Y32200D02*
D03*
X841350D02*
D03*
X831450Y25800D02*
D03*
X808550D02*
D03*
X939750D02*
D03*
X962650D02*
D03*
X841350D02*
D03*
X864250D02*
D03*
X906950Y32200D02*
D03*
X929850D02*
D03*
X808550D02*
D03*
X831450D02*
D03*
X1159450D02*
D03*
X1136550D02*
D03*
X1126650Y25800D02*
D03*
X1103750D02*
D03*
X1093850D02*
D03*
X1070950D02*
D03*
X1093850Y32200D02*
D03*
X1070950D02*
D03*
X1061050D02*
D03*
X1038150D02*
D03*
X1028250Y25800D02*
D03*
X1005350D02*
D03*
X1136550D02*
D03*
X1159450D02*
D03*
X1038150D02*
D03*
X1061050D02*
D03*
X1103750Y32200D02*
D03*
X1126650D02*
D03*
X1005350D02*
D03*
X1028250D02*
D03*
X1356250D02*
D03*
X1333350D02*
D03*
X1323450Y25800D02*
D03*
X1300550D02*
D03*
X1290650Y32200D02*
D03*
X1267750D02*
D03*
X1290650Y25800D02*
D03*
X1267750D02*
D03*
X1257850Y32200D02*
D03*
X1234950D02*
D03*
X1225050Y25800D02*
D03*
X1202150D02*
D03*
X1333350D02*
D03*
X1356250D02*
D03*
X1234950D02*
D03*
X1257850D02*
D03*
X1300550Y32200D02*
D03*
X1323450D02*
D03*
X1202150D02*
D03*
X1225050D02*
D03*
X1553050D02*
D03*
X1530150D02*
D03*
X1520250Y25800D02*
D03*
X1497350D02*
D03*
X1487450D02*
D03*
X1464550D02*
D03*
X1487450Y32200D02*
D03*
X1464550D02*
D03*
X1454650D02*
D03*
X1431750D02*
D03*
X1421850Y25800D02*
D03*
X1398950D02*
D03*
X1530150D02*
D03*
X1553050D02*
D03*
X1431750D02*
D03*
X1454650D02*
D03*
X1497350Y32200D02*
D03*
X1520250D02*
D03*
X1398950D02*
D03*
X1421850D02*
D03*
X1749850D02*
D03*
X1726950D02*
D03*
X1717050Y25800D02*
D03*
X1694150D02*
D03*
X1684250Y32200D02*
D03*
X1661350D02*
D03*
X1684250Y25800D02*
D03*
X1661350D02*
D03*
X1651450Y32200D02*
D03*
X1628550D02*
D03*
X1618650Y25800D02*
D03*
X1595750D02*
D03*
X1726950D02*
D03*
X1749850D02*
D03*
X1628550D02*
D03*
X1651450D02*
D03*
X1694150Y32200D02*
D03*
X1717050D02*
D03*
X1595750D02*
D03*
X1618650D02*
D03*
X1946650D02*
D03*
X1923750D02*
D03*
X1913850Y25800D02*
D03*
X1890950D02*
D03*
X1881050D02*
D03*
X1858150D02*
D03*
X1881050Y32200D02*
D03*
X1858150D02*
D03*
X1848250D02*
D03*
X1825350D02*
D03*
X1815450Y25800D02*
D03*
X1792550D02*
D03*
X1956550D02*
D03*
X1759750D02*
D03*
X1366150D02*
D03*
X1562950D02*
D03*
X1169350D02*
D03*
X972550D02*
D03*
X775750D02*
D03*
X578950D02*
D03*
X382150D02*
D03*
X185350D02*
D03*
X1782650Y32200D02*
D03*
X1585850D02*
D03*
X1389050D02*
D03*
X1192250D02*
D03*
X995450D02*
D03*
X1782650Y25800D02*
D03*
X1585850D02*
D03*
X1389050D02*
D03*
X1192250D02*
D03*
X995450D02*
D03*
X798650Y32200D02*
D03*
X601850D02*
D03*
X405050D02*
D03*
X208250D02*
D03*
X11450D02*
D03*
X798650Y25800D02*
D03*
X601850D02*
D03*
X11450D02*
D03*
X405050D02*
D03*
X208250D02*
D03*
X1759750Y32200D02*
D03*
X1956550D02*
D03*
X1562950D02*
D03*
X1366150D02*
D03*
X1169350D02*
D03*
X972550D02*
D03*
X578950D02*
D03*
X775750D02*
D03*
X185350D02*
D03*
X382150D02*
D03*
X1923750Y25800D02*
D03*
X1946650D02*
D03*
X1825350D02*
D03*
X1848250D02*
D03*
X1890950Y32200D02*
D03*
X1913850D02*
D03*
X1792550D02*
D03*
X1815450D02*
D03*
X21350Y25800D02*
D03*
Y32200D02*
D03*
X44250Y25800D02*
D03*
Y32200D02*
D03*
X54150Y25800D02*
D03*
Y32200D02*
D03*
X77050Y25800D02*
D03*
Y32200D02*
D03*
X86950Y25800D02*
D03*
Y32200D02*
D03*
X109850Y25800D02*
D03*
Y32200D02*
D03*
X119750Y25800D02*
D03*
Y32200D02*
D03*
X142650Y25800D02*
D03*
Y32200D02*
D03*
X152550Y25800D02*
D03*
Y32200D02*
D03*
X175450Y25800D02*
D03*
Y32200D02*
D03*
M02*
