G04*
G04 #@! TF.GenerationSoftware,Altium Limited,Altium Designer,25.8.1 (18)*
G04*
G04 Layer_Color=32768*
%FSLAX25Y25*%
%MOIN*%
G70*
G04*
G04 #@! TF.SameCoordinates,390A0C2E-5F43-43DE-B89E-D80C0B79A47B*
G04*
G04*
G04 #@! TF.FilePolarity,Positive*
G04*
G01*
G75*
%ADD12C,0.00500*%
%ADD13C,0.00400*%
D12*
X375700Y19300D02*
X392300D01*
Y6700D02*
Y19300D01*
X375700Y6700D02*
X392300D01*
X375700D02*
Y19300D01*
X197800D02*
X214400D01*
Y6700D02*
Y19300D01*
X197800Y6700D02*
X214400D01*
X197800D02*
Y19300D01*
X375700Y51300D02*
X392300D01*
Y38700D02*
Y51300D01*
X375700Y38700D02*
X392300D01*
X375700D02*
Y51300D01*
X197800D02*
X214400D01*
Y38700D02*
Y51300D01*
X197800Y38700D02*
X214400D01*
X197800D02*
Y51300D01*
X572500Y19300D02*
X589100D01*
Y6700D02*
Y19300D01*
X572500Y6700D02*
X589100D01*
X572500D02*
Y19300D01*
X394600D02*
X411200D01*
Y6700D02*
Y19300D01*
X394600Y6700D02*
X411200D01*
X394600D02*
Y19300D01*
X572500Y51300D02*
X589100D01*
Y38700D02*
Y51300D01*
X572500Y38700D02*
X589100D01*
X572500D02*
Y51300D01*
X394600D02*
X411200D01*
Y38700D02*
Y51300D01*
X394600Y38700D02*
X411200D01*
X394600D02*
Y51300D01*
X769300Y19300D02*
X785900D01*
Y6700D02*
Y19300D01*
X769300Y6700D02*
X785900D01*
X769300D02*
Y19300D01*
X591400D02*
X608000D01*
Y6700D02*
Y19300D01*
X591400Y6700D02*
X608000D01*
X591400D02*
Y19300D01*
X769300Y51300D02*
X785900D01*
Y38700D02*
Y51300D01*
X769300Y38700D02*
X785900D01*
X769300D02*
Y51300D01*
X591400D02*
X608000D01*
Y38700D02*
Y51300D01*
X591400Y38700D02*
X608000D01*
X591400D02*
Y51300D01*
X966100Y19300D02*
X982700D01*
Y6700D02*
Y19300D01*
X966100Y6700D02*
X982700D01*
X966100D02*
Y19300D01*
X788200D02*
X804800D01*
Y6700D02*
Y19300D01*
X788200Y6700D02*
X804800D01*
X788200D02*
Y19300D01*
X966100Y51300D02*
X982700D01*
Y38700D02*
Y51300D01*
X966100Y38700D02*
X982700D01*
X966100D02*
Y51300D01*
X788200D02*
X804800D01*
Y38700D02*
Y51300D01*
X788200Y38700D02*
X804800D01*
X788200D02*
Y51300D01*
X1162900Y19300D02*
X1179500D01*
Y6700D02*
Y19300D01*
X1162900Y6700D02*
X1179500D01*
X1162900D02*
Y19300D01*
X985000D02*
X1001600D01*
Y6700D02*
Y19300D01*
X985000Y6700D02*
X1001600D01*
X985000D02*
Y19300D01*
X1162900Y51300D02*
X1179500D01*
Y38700D02*
Y51300D01*
X1162900Y38700D02*
X1179500D01*
X1162900D02*
Y51300D01*
X985000D02*
X1001600D01*
Y38700D02*
Y51300D01*
X985000Y38700D02*
X1001600D01*
X985000D02*
Y51300D01*
X1359700Y19300D02*
X1376300D01*
Y6700D02*
Y19300D01*
X1359700Y6700D02*
X1376300D01*
X1359700D02*
Y19300D01*
X1181800D02*
X1198400D01*
Y6700D02*
Y19300D01*
X1181800Y6700D02*
X1198400D01*
X1181800D02*
Y19300D01*
X1359700Y51300D02*
X1376300D01*
Y38700D02*
Y51300D01*
X1359700Y38700D02*
X1376300D01*
X1359700D02*
Y51300D01*
X1181800D02*
X1198400D01*
Y38700D02*
Y51300D01*
X1181800Y38700D02*
X1198400D01*
X1181800D02*
Y51300D01*
X1556500Y19300D02*
X1573100D01*
Y6700D02*
Y19300D01*
X1556500Y6700D02*
X1573100D01*
X1556500D02*
Y19300D01*
X1378600D02*
X1395200D01*
Y6700D02*
Y19300D01*
X1378600Y6700D02*
X1395200D01*
X1378600D02*
Y19300D01*
X1556500Y51300D02*
X1573100D01*
Y38700D02*
Y51300D01*
X1556500Y38700D02*
X1573100D01*
X1556500D02*
Y51300D01*
X1378600D02*
X1395200D01*
Y38700D02*
Y51300D01*
X1378600Y38700D02*
X1395200D01*
X1378600D02*
Y51300D01*
X1753300Y19300D02*
X1769900D01*
Y6700D02*
Y19300D01*
X1753300Y6700D02*
X1769900D01*
X1753300D02*
Y19300D01*
X1575400D02*
X1592000D01*
Y6700D02*
Y19300D01*
X1575400Y6700D02*
X1592000D01*
X1575400D02*
Y19300D01*
X1753300Y51300D02*
X1769900D01*
Y38700D02*
Y51300D01*
X1753300Y38700D02*
X1769900D01*
X1753300D02*
Y51300D01*
X1575400D02*
X1592000D01*
Y38700D02*
Y51300D01*
X1575400Y38700D02*
X1592000D01*
X1575400D02*
Y51300D01*
X1950100Y19300D02*
X1966700D01*
Y6700D02*
Y19300D01*
X1950100Y6700D02*
X1966700D01*
X1950100D02*
Y19300D01*
X1772200D02*
X1788800D01*
Y6700D02*
Y19300D01*
X1772200Y6700D02*
X1788800D01*
X1772200D02*
Y19300D01*
X1950100Y51300D02*
X1966700D01*
Y38700D02*
Y51300D01*
X1950100Y38700D02*
X1966700D01*
X1950100D02*
Y51300D01*
X1772200D02*
X1788800D01*
Y38700D02*
Y51300D01*
X1772200Y38700D02*
X1788800D01*
X1772200D02*
Y51300D01*
X800Y21700D02*
X8400D01*
X800D02*
Y36100D01*
X8400D01*
Y21700D02*
Y36100D01*
X205200Y21700D02*
Y36100D01*
X197600D02*
X205200D01*
X197600Y21700D02*
Y36100D01*
Y21700D02*
X205200D01*
X394400D02*
X402000D01*
X394400D02*
Y36100D01*
X402000D01*
Y21700D02*
Y36100D01*
X598800Y21700D02*
Y36100D01*
X591200D02*
X598800D01*
X591200Y21700D02*
Y36100D01*
Y21700D02*
X598800D01*
X788000D02*
X795600D01*
X788000D02*
Y36100D01*
X795600D01*
Y21700D02*
Y36100D01*
X992400Y21700D02*
Y36100D01*
X984800D02*
X992400D01*
X984800Y21700D02*
Y36100D01*
Y21700D02*
X992400D01*
X1181600D02*
X1189200D01*
X1181600D02*
Y36100D01*
X1189200D01*
Y21700D02*
Y36100D01*
X1386000Y21700D02*
Y36100D01*
X1378400D02*
X1386000D01*
X1378400Y21700D02*
Y36100D01*
Y21700D02*
X1386000D01*
X1575200D02*
X1582800D01*
X1575200D02*
Y36100D01*
X1582800D01*
Y21700D02*
Y36100D01*
X1779600Y21700D02*
Y36100D01*
X1772000D02*
X1779600D01*
X1772000Y21700D02*
Y36100D01*
Y21700D02*
X1779600D01*
X188700D02*
X196300D01*
X188700D02*
Y36100D01*
X196300D01*
Y21700D02*
Y36100D01*
X393100Y21700D02*
Y36100D01*
X385500D02*
X393100D01*
X385500Y21700D02*
Y36100D01*
Y21700D02*
X393100D01*
X582300D02*
X589900D01*
X582300D02*
Y36100D01*
X589900D01*
Y21700D02*
Y36100D01*
X786700Y21700D02*
Y36100D01*
X779100D02*
X786700D01*
X779100Y21700D02*
Y36100D01*
Y21700D02*
X786700D01*
X975900D02*
X983500D01*
X975900D02*
Y36100D01*
X983500D01*
Y21700D02*
Y36100D01*
X1180300Y21700D02*
Y36100D01*
X1172700D02*
X1180300D01*
X1172700Y21700D02*
Y36100D01*
Y21700D02*
X1180300D01*
X1369500D02*
X1377100D01*
X1369500D02*
Y36100D01*
X1377100D01*
Y21700D02*
Y36100D01*
X1573900Y21700D02*
Y36100D01*
X1566300D02*
X1573900D01*
X1566300Y21700D02*
Y36100D01*
Y21700D02*
X1573900D01*
X1763100D02*
X1770700D01*
X1763100D02*
Y36100D01*
X1770700D01*
Y21700D02*
Y36100D01*
X1967500Y21700D02*
Y36100D01*
X1959900D02*
X1967500D01*
X1959900Y21700D02*
Y36100D01*
Y21700D02*
X1967500D01*
X178900Y6700D02*
Y19300D01*
Y6700D02*
X195500D01*
Y19300D01*
X178900D02*
X195500D01*
X178900Y38700D02*
Y51300D01*
Y38700D02*
X195500D01*
Y51300D01*
X178900D02*
X195500D01*
X1000Y6700D02*
Y19300D01*
Y6700D02*
X17600D01*
Y19300D01*
X1000D02*
X17600D01*
X1000Y38700D02*
Y51300D01*
Y38700D02*
X17600D01*
Y51300D01*
X1000D02*
X17600D01*
D13*
X382000Y13000D02*
X386000D01*
X384000Y11000D02*
Y15000D01*
X204100Y13000D02*
X208100D01*
X206100Y11000D02*
Y15000D01*
X382000Y45000D02*
X386000D01*
X384000Y43000D02*
Y47000D01*
X204100Y45000D02*
X208100D01*
X206100Y43000D02*
Y47000D01*
X359800Y26700D02*
X363800D01*
X361800Y24700D02*
Y28700D01*
X357800Y17800D02*
Y35600D01*
X365800Y17800D02*
Y35600D01*
X357800Y17800D02*
X365800D01*
X357800Y35600D02*
X365800D01*
X260800Y26700D02*
X264800D01*
X262800Y24700D02*
Y28700D01*
X258800Y17800D02*
Y35600D01*
X266800Y17800D02*
Y35600D01*
X258800Y17800D02*
X266800D01*
X258800Y35600D02*
X266800D01*
X326800Y31300D02*
X330800D01*
X328800Y29300D02*
Y33300D01*
X332800Y22400D02*
Y40200D01*
X324800Y22400D02*
Y40200D01*
X332800D01*
X324800Y22400D02*
X332800D01*
X227800Y31300D02*
X231800D01*
X229800Y29300D02*
Y33300D01*
X233800Y22400D02*
Y40200D01*
X225800Y22400D02*
Y40200D01*
X233800D01*
X225800Y22400D02*
X233800D01*
X578800Y13000D02*
X582800D01*
X580800Y11000D02*
Y15000D01*
X400900Y13000D02*
X404900D01*
X402900Y11000D02*
Y15000D01*
X578800Y45000D02*
X582800D01*
X580800Y43000D02*
Y47000D01*
X400900Y45000D02*
X404900D01*
X402900Y43000D02*
Y47000D01*
X556600Y26700D02*
X560600D01*
X558600Y24700D02*
Y28700D01*
X554600Y17800D02*
Y35600D01*
X562600Y17800D02*
Y35600D01*
X554600Y17800D02*
X562600D01*
X554600Y35600D02*
X562600D01*
X457600Y26700D02*
X461600D01*
X459600Y24700D02*
Y28700D01*
X455600Y17800D02*
Y35600D01*
X463600Y17800D02*
Y35600D01*
X455600Y17800D02*
X463600D01*
X455600Y35600D02*
X463600D01*
X523600Y31300D02*
X527600D01*
X525600Y29300D02*
Y33300D01*
X529600Y22400D02*
Y40200D01*
X521600Y22400D02*
Y40200D01*
X529600D01*
X521600Y22400D02*
X529600D01*
X424600Y31300D02*
X428600D01*
X426600Y29300D02*
Y33300D01*
X430600Y22400D02*
Y40200D01*
X422600Y22400D02*
Y40200D01*
X430600D01*
X422600Y22400D02*
X430600D01*
X775600Y13000D02*
X779600D01*
X777600Y11000D02*
Y15000D01*
X597700Y13000D02*
X601700D01*
X599700Y11000D02*
Y15000D01*
X775600Y45000D02*
X779600D01*
X777600Y43000D02*
Y47000D01*
X597700Y45000D02*
X601700D01*
X599700Y43000D02*
Y47000D01*
X753400Y26700D02*
X757400D01*
X755400Y24700D02*
Y28700D01*
X751400Y17800D02*
Y35600D01*
X759400Y17800D02*
Y35600D01*
X751400Y17800D02*
X759400D01*
X751400Y35600D02*
X759400D01*
X654400Y26700D02*
X658400D01*
X656400Y24700D02*
Y28700D01*
X652400Y17800D02*
Y35600D01*
X660400Y17800D02*
Y35600D01*
X652400Y17800D02*
X660400D01*
X652400Y35600D02*
X660400D01*
X720400Y31300D02*
X724400D01*
X722400Y29300D02*
Y33300D01*
X726400Y22400D02*
Y40200D01*
X718400Y22400D02*
Y40200D01*
X726400D01*
X718400Y22400D02*
X726400D01*
X621400Y31300D02*
X625400D01*
X623400Y29300D02*
Y33300D01*
X627400Y22400D02*
Y40200D01*
X619400Y22400D02*
Y40200D01*
X627400D01*
X619400Y22400D02*
X627400D01*
X972400Y13000D02*
X976400D01*
X974400Y11000D02*
Y15000D01*
X794500Y13000D02*
X798500D01*
X796500Y11000D02*
Y15000D01*
X972400Y45000D02*
X976400D01*
X974400Y43000D02*
Y47000D01*
X794500Y45000D02*
X798500D01*
X796500Y43000D02*
Y47000D01*
X950200Y26700D02*
X954200D01*
X952200Y24700D02*
Y28700D01*
X948200Y17800D02*
Y35600D01*
X956200Y17800D02*
Y35600D01*
X948200Y17800D02*
X956200D01*
X948200Y35600D02*
X956200D01*
X851200Y26700D02*
X855200D01*
X853200Y24700D02*
Y28700D01*
X849200Y17800D02*
Y35600D01*
X857200Y17800D02*
Y35600D01*
X849200Y17800D02*
X857200D01*
X849200Y35600D02*
X857200D01*
X917200Y31300D02*
X921200D01*
X919200Y29300D02*
Y33300D01*
X923200Y22400D02*
Y40200D01*
X915200Y22400D02*
Y40200D01*
X923200D01*
X915200Y22400D02*
X923200D01*
X818200Y31300D02*
X822200D01*
X820200Y29300D02*
Y33300D01*
X824200Y22400D02*
Y40200D01*
X816200Y22400D02*
Y40200D01*
X824200D01*
X816200Y22400D02*
X824200D01*
X1169200Y13000D02*
X1173200D01*
X1171200Y11000D02*
Y15000D01*
X991300Y13000D02*
X995300D01*
X993300Y11000D02*
Y15000D01*
X1169200Y45000D02*
X1173200D01*
X1171200Y43000D02*
Y47000D01*
X991300Y45000D02*
X995300D01*
X993300Y43000D02*
Y47000D01*
X1147000Y26700D02*
X1151000D01*
X1149000Y24700D02*
Y28700D01*
X1145000Y17800D02*
Y35600D01*
X1153000Y17800D02*
Y35600D01*
X1145000Y17800D02*
X1153000D01*
X1145000Y35600D02*
X1153000D01*
X1048000Y26700D02*
X1052000D01*
X1050000Y24700D02*
Y28700D01*
X1046000Y17800D02*
Y35600D01*
X1054000Y17800D02*
Y35600D01*
X1046000Y17800D02*
X1054000D01*
X1046000Y35600D02*
X1054000D01*
X1114000Y31300D02*
X1118000D01*
X1116000Y29300D02*
Y33300D01*
X1120000Y22400D02*
Y40200D01*
X1112000Y22400D02*
Y40200D01*
X1120000D01*
X1112000Y22400D02*
X1120000D01*
X1015000Y31300D02*
X1019000D01*
X1017000Y29300D02*
Y33300D01*
X1021000Y22400D02*
Y40200D01*
X1013000Y22400D02*
Y40200D01*
X1021000D01*
X1013000Y22400D02*
X1021000D01*
X1366000Y13000D02*
X1370000D01*
X1368000Y11000D02*
Y15000D01*
X1188100Y13000D02*
X1192100D01*
X1190100Y11000D02*
Y15000D01*
X1366000Y45000D02*
X1370000D01*
X1368000Y43000D02*
Y47000D01*
X1188100Y45000D02*
X1192100D01*
X1190100Y43000D02*
Y47000D01*
X1343800Y26700D02*
X1347800D01*
X1345800Y24700D02*
Y28700D01*
X1341800Y17800D02*
Y35600D01*
X1349800Y17800D02*
Y35600D01*
X1341800Y17800D02*
X1349800D01*
X1341800Y35600D02*
X1349800D01*
X1244800Y26700D02*
X1248800D01*
X1246800Y24700D02*
Y28700D01*
X1242800Y17800D02*
Y35600D01*
X1250800Y17800D02*
Y35600D01*
X1242800Y17800D02*
X1250800D01*
X1242800Y35600D02*
X1250800D01*
X1310800Y31300D02*
X1314800D01*
X1312800Y29300D02*
Y33300D01*
X1316800Y22400D02*
Y40200D01*
X1308800Y22400D02*
Y40200D01*
X1316800D01*
X1308800Y22400D02*
X1316800D01*
X1211800Y31300D02*
X1215800D01*
X1213800Y29300D02*
Y33300D01*
X1217800Y22400D02*
Y40200D01*
X1209800Y22400D02*
Y40200D01*
X1217800D01*
X1209800Y22400D02*
X1217800D01*
X1562800Y13000D02*
X1566800D01*
X1564800Y11000D02*
Y15000D01*
X1384900Y13000D02*
X1388900D01*
X1386900Y11000D02*
Y15000D01*
X1562800Y45000D02*
X1566800D01*
X1564800Y43000D02*
Y47000D01*
X1384900Y45000D02*
X1388900D01*
X1386900Y43000D02*
Y47000D01*
X1540600Y26700D02*
X1544600D01*
X1542600Y24700D02*
Y28700D01*
X1538600Y17800D02*
Y35600D01*
X1546600Y17800D02*
Y35600D01*
X1538600Y17800D02*
X1546600D01*
X1538600Y35600D02*
X1546600D01*
X1441600Y26700D02*
X1445600D01*
X1443600Y24700D02*
Y28700D01*
X1439600Y17800D02*
Y35600D01*
X1447600Y17800D02*
Y35600D01*
X1439600Y17800D02*
X1447600D01*
X1439600Y35600D02*
X1447600D01*
X1507600Y31300D02*
X1511600D01*
X1509600Y29300D02*
Y33300D01*
X1513600Y22400D02*
Y40200D01*
X1505600Y22400D02*
Y40200D01*
X1513600D01*
X1505600Y22400D02*
X1513600D01*
X1408600Y31300D02*
X1412600D01*
X1410600Y29300D02*
Y33300D01*
X1414600Y22400D02*
Y40200D01*
X1406600Y22400D02*
Y40200D01*
X1414600D01*
X1406600Y22400D02*
X1414600D01*
X1759600Y13000D02*
X1763600D01*
X1761600Y11000D02*
Y15000D01*
X1581700Y13000D02*
X1585700D01*
X1583700Y11000D02*
Y15000D01*
X1759600Y45000D02*
X1763600D01*
X1761600Y43000D02*
Y47000D01*
X1581700Y45000D02*
X1585700D01*
X1583700Y43000D02*
Y47000D01*
X1737400Y26700D02*
X1741400D01*
X1739400Y24700D02*
Y28700D01*
X1735400Y17800D02*
Y35600D01*
X1743400Y17800D02*
Y35600D01*
X1735400Y17800D02*
X1743400D01*
X1735400Y35600D02*
X1743400D01*
X1638400Y26700D02*
X1642400D01*
X1640400Y24700D02*
Y28700D01*
X1636400Y17800D02*
Y35600D01*
X1644400Y17800D02*
Y35600D01*
X1636400Y17800D02*
X1644400D01*
X1636400Y35600D02*
X1644400D01*
X1704400Y31300D02*
X1708400D01*
X1706400Y29300D02*
Y33300D01*
X1710400Y22400D02*
Y40200D01*
X1702400Y22400D02*
Y40200D01*
X1710400D01*
X1702400Y22400D02*
X1710400D01*
X1605400Y31300D02*
X1609400D01*
X1607400Y29300D02*
Y33300D01*
X1611400Y22400D02*
Y40200D01*
X1603400Y22400D02*
Y40200D01*
X1611400D01*
X1603400Y22400D02*
X1611400D01*
X1956400Y13000D02*
X1960400D01*
X1958400Y11000D02*
Y15000D01*
X1778500Y13000D02*
X1782500D01*
X1780500Y11000D02*
Y15000D01*
X1956400Y45000D02*
X1960400D01*
X1958400Y43000D02*
Y47000D01*
X1778500Y45000D02*
X1782500D01*
X1780500Y43000D02*
Y47000D01*
X1934200Y26700D02*
X1938200D01*
X1936200Y24700D02*
Y28700D01*
X1932200Y17800D02*
Y35600D01*
X1940200Y17800D02*
Y35600D01*
X1932200Y17800D02*
X1940200D01*
X1932200Y35600D02*
X1940200D01*
X1901200Y31300D02*
X1905200D01*
X1903200Y29300D02*
Y33300D01*
X1907200Y22400D02*
Y40200D01*
X1899200Y22400D02*
Y40200D01*
X1907200D01*
X1899200Y22400D02*
X1907200D01*
X1802200Y31300D02*
X1806200D01*
X1804200Y29300D02*
Y33300D01*
X1808200Y22400D02*
Y40200D01*
X1800200Y22400D02*
Y40200D01*
X1808200D01*
X1800200Y22400D02*
X1808200D01*
X1835200Y26700D02*
X1839200D01*
X1837200Y24700D02*
Y28700D01*
X1833200Y17800D02*
Y35600D01*
X1841200Y17800D02*
Y35600D01*
X1833200Y17800D02*
X1841200D01*
X1833200Y35600D02*
X1841200D01*
X16400Y27000D02*
Y31000D01*
X14400Y29000D02*
X18400D01*
X8100Y22900D02*
X24700D01*
X8100Y35100D02*
X24700D01*
Y22900D02*
Y35100D01*
X8100Y22900D02*
Y35100D01*
X204900Y22900D02*
Y35100D01*
X221500Y22900D02*
Y35100D01*
X204900D02*
X221500D01*
X204900Y22900D02*
X221500D01*
X211200Y29000D02*
X215200D01*
X213200Y27000D02*
Y31000D01*
X410000Y27000D02*
Y31000D01*
X408000Y29000D02*
X412000D01*
X401700Y22900D02*
X418300D01*
X401700Y35100D02*
X418300D01*
Y22900D02*
Y35100D01*
X401700Y22900D02*
Y35100D01*
X598500Y22900D02*
Y35100D01*
X615100Y22900D02*
Y35100D01*
X598500D02*
X615100D01*
X598500Y22900D02*
X615100D01*
X604800Y29000D02*
X608800D01*
X606800Y27000D02*
Y31000D01*
X803600Y27000D02*
Y31000D01*
X801600Y29000D02*
X805600D01*
X795300Y22900D02*
X811900D01*
X795300Y35100D02*
X811900D01*
Y22900D02*
Y35100D01*
X795300Y22900D02*
Y35100D01*
X992100Y22900D02*
Y35100D01*
X1008700Y22900D02*
Y35100D01*
X992100D02*
X1008700D01*
X992100Y22900D02*
X1008700D01*
X998400Y29000D02*
X1002400D01*
X1000400Y27000D02*
Y31000D01*
X1197200Y27000D02*
Y31000D01*
X1195200Y29000D02*
X1199200D01*
X1188900Y22900D02*
X1205500D01*
X1188900Y35100D02*
X1205500D01*
Y22900D02*
Y35100D01*
X1188900Y22900D02*
Y35100D01*
X1385700Y22900D02*
Y35100D01*
X1402300Y22900D02*
Y35100D01*
X1385700D02*
X1402300D01*
X1385700Y22900D02*
X1402300D01*
X1392000Y29000D02*
X1396000D01*
X1394000Y27000D02*
Y31000D01*
X1590800Y27000D02*
Y31000D01*
X1588800Y29000D02*
X1592800D01*
X1582500Y22900D02*
X1599100D01*
X1582500Y35100D02*
X1599100D01*
Y22900D02*
Y35100D01*
X1582500Y22900D02*
Y35100D01*
X1779300Y22900D02*
Y35100D01*
X1795900Y22900D02*
Y35100D01*
X1779300D02*
X1795900D01*
X1779300Y22900D02*
X1795900D01*
X1785600Y29000D02*
X1789600D01*
X1787600Y27000D02*
Y31000D01*
X49200Y27000D02*
Y31000D01*
X47200Y29000D02*
X51200D01*
X40900Y22900D02*
X57500D01*
X40900Y35100D02*
X57500D01*
Y22900D02*
Y35100D01*
X40900Y22900D02*
Y35100D01*
X237700Y22900D02*
Y35100D01*
X254300Y22900D02*
Y35100D01*
X237700D02*
X254300D01*
X237700Y22900D02*
X254300D01*
X244000Y29000D02*
X248000D01*
X246000Y27000D02*
Y31000D01*
X442800Y27000D02*
Y31000D01*
X440800Y29000D02*
X444800D01*
X434500Y22900D02*
X451100D01*
X434500Y35100D02*
X451100D01*
Y22900D02*
Y35100D01*
X434500Y22900D02*
Y35100D01*
X631300Y22900D02*
Y35100D01*
X647900Y22900D02*
Y35100D01*
X631300D02*
X647900D01*
X631300Y22900D02*
X647900D01*
X637600Y29000D02*
X641600D01*
X639600Y27000D02*
Y31000D01*
X836400Y27000D02*
Y31000D01*
X834400Y29000D02*
X838400D01*
X828100Y22900D02*
X844700D01*
X828100Y35100D02*
X844700D01*
Y22900D02*
Y35100D01*
X828100Y22900D02*
Y35100D01*
X1024900Y22900D02*
Y35100D01*
X1041500Y22900D02*
Y35100D01*
X1024900D02*
X1041500D01*
X1024900Y22900D02*
X1041500D01*
X1031200Y29000D02*
X1035200D01*
X1033200Y27000D02*
Y31000D01*
X1230000Y27000D02*
Y31000D01*
X1228000Y29000D02*
X1232000D01*
X1221700Y22900D02*
X1238300D01*
X1221700Y35100D02*
X1238300D01*
Y22900D02*
Y35100D01*
X1221700Y22900D02*
Y35100D01*
X1418500Y22900D02*
Y35100D01*
X1435100Y22900D02*
Y35100D01*
X1418500D02*
X1435100D01*
X1418500Y22900D02*
X1435100D01*
X1424800Y29000D02*
X1428800D01*
X1426800Y27000D02*
Y31000D01*
X1623600Y27000D02*
Y31000D01*
X1621600Y29000D02*
X1625600D01*
X1615300Y22900D02*
X1631900D01*
X1615300Y35100D02*
X1631900D01*
Y22900D02*
Y35100D01*
X1615300Y22900D02*
Y35100D01*
X1812100Y22900D02*
Y35100D01*
X1828700Y22900D02*
Y35100D01*
X1812100D02*
X1828700D01*
X1812100Y22900D02*
X1828700D01*
X1818400Y29000D02*
X1822400D01*
X1820400Y27000D02*
Y31000D01*
X82000Y27000D02*
Y31000D01*
X80000Y29000D02*
X84000D01*
X73700Y22900D02*
X90300D01*
X73700Y35100D02*
X90300D01*
Y22900D02*
Y35100D01*
X73700Y22900D02*
Y35100D01*
X270500Y22900D02*
Y35100D01*
X287100Y22900D02*
Y35100D01*
X270500D02*
X287100D01*
X270500Y22900D02*
X287100D01*
X276800Y29000D02*
X280800D01*
X278800Y27000D02*
Y31000D01*
X475600Y27000D02*
Y31000D01*
X473600Y29000D02*
X477600D01*
X467300Y22900D02*
X483900D01*
X467300Y35100D02*
X483900D01*
Y22900D02*
Y35100D01*
X467300Y22900D02*
Y35100D01*
X664100Y22900D02*
Y35100D01*
X680700Y22900D02*
Y35100D01*
X664100D02*
X680700D01*
X664100Y22900D02*
X680700D01*
X670400Y29000D02*
X674400D01*
X672400Y27000D02*
Y31000D01*
X869200Y27000D02*
Y31000D01*
X867200Y29000D02*
X871200D01*
X860900Y22900D02*
X877500D01*
X860900Y35100D02*
X877500D01*
Y22900D02*
Y35100D01*
X860900Y22900D02*
Y35100D01*
X1057700Y22900D02*
Y35100D01*
X1074300Y22900D02*
Y35100D01*
X1057700D02*
X1074300D01*
X1057700Y22900D02*
X1074300D01*
X1064000Y29000D02*
X1068000D01*
X1066000Y27000D02*
Y31000D01*
X1262800Y27000D02*
Y31000D01*
X1260800Y29000D02*
X1264800D01*
X1254500Y22900D02*
X1271100D01*
X1254500Y35100D02*
X1271100D01*
Y22900D02*
Y35100D01*
X1254500Y22900D02*
Y35100D01*
X1451300Y22900D02*
Y35100D01*
X1467900Y22900D02*
Y35100D01*
X1451300D02*
X1467900D01*
X1451300Y22900D02*
X1467900D01*
X1457600Y29000D02*
X1461600D01*
X1459600Y27000D02*
Y31000D01*
X1656400Y27000D02*
Y31000D01*
X1654400Y29000D02*
X1658400D01*
X1648100Y22900D02*
X1664700D01*
X1648100Y35100D02*
X1664700D01*
Y22900D02*
Y35100D01*
X1648100Y22900D02*
Y35100D01*
X1844900Y22900D02*
Y35100D01*
X1861500Y22900D02*
Y35100D01*
X1844900D02*
X1861500D01*
X1844900Y22900D02*
X1861500D01*
X1851200Y29000D02*
X1855200D01*
X1853200Y27000D02*
Y31000D01*
X114800Y27000D02*
Y31000D01*
X112800Y29000D02*
X116800D01*
X106500Y22900D02*
X123100D01*
X106500Y35100D02*
X123100D01*
Y22900D02*
Y35100D01*
X106500Y22900D02*
Y35100D01*
X303300Y22900D02*
Y35100D01*
X319900Y22900D02*
Y35100D01*
X303300D02*
X319900D01*
X303300Y22900D02*
X319900D01*
X309600Y29000D02*
X313600D01*
X311600Y27000D02*
Y31000D01*
X508400Y27000D02*
Y31000D01*
X506400Y29000D02*
X510400D01*
X500100Y22900D02*
X516700D01*
X500100Y35100D02*
X516700D01*
Y22900D02*
Y35100D01*
X500100Y22900D02*
Y35100D01*
X696900Y22900D02*
Y35100D01*
X713500Y22900D02*
Y35100D01*
X696900D02*
X713500D01*
X696900Y22900D02*
X713500D01*
X703200Y29000D02*
X707200D01*
X705200Y27000D02*
Y31000D01*
X902000Y27000D02*
Y31000D01*
X900000Y29000D02*
X904000D01*
X893700Y22900D02*
X910300D01*
X893700Y35100D02*
X910300D01*
Y22900D02*
Y35100D01*
X893700Y22900D02*
Y35100D01*
X1090500Y22900D02*
Y35100D01*
X1107100Y22900D02*
Y35100D01*
X1090500D02*
X1107100D01*
X1090500Y22900D02*
X1107100D01*
X1096800Y29000D02*
X1100800D01*
X1098800Y27000D02*
Y31000D01*
X1295600Y27000D02*
Y31000D01*
X1293600Y29000D02*
X1297600D01*
X1287300Y22900D02*
X1303900D01*
X1287300Y35100D02*
X1303900D01*
Y22900D02*
Y35100D01*
X1287300Y22900D02*
Y35100D01*
X1484100Y22900D02*
Y35100D01*
X1500700Y22900D02*
Y35100D01*
X1484100D02*
X1500700D01*
X1484100Y22900D02*
X1500700D01*
X1490400Y29000D02*
X1494400D01*
X1492400Y27000D02*
Y31000D01*
X1689200Y27000D02*
Y31000D01*
X1687200Y29000D02*
X1691200D01*
X1680900Y22900D02*
X1697500D01*
X1680900Y35100D02*
X1697500D01*
Y22900D02*
Y35100D01*
X1680900Y22900D02*
Y35100D01*
X1877700Y22900D02*
Y35100D01*
X1894300Y22900D02*
Y35100D01*
X1877700D02*
X1894300D01*
X1877700Y22900D02*
X1894300D01*
X1884000Y29000D02*
X1888000D01*
X1886000Y27000D02*
Y31000D01*
X147600Y27000D02*
Y31000D01*
X145600Y29000D02*
X149600D01*
X139300Y22900D02*
X155900D01*
X139300Y35100D02*
X155900D01*
Y22900D02*
Y35100D01*
X139300Y22900D02*
Y35100D01*
X336100Y22900D02*
Y35100D01*
X352700Y22900D02*
Y35100D01*
X336100D02*
X352700D01*
X336100Y22900D02*
X352700D01*
X342400Y29000D02*
X346400D01*
X344400Y27000D02*
Y31000D01*
X541200Y27000D02*
Y31000D01*
X539200Y29000D02*
X543200D01*
X532900Y22900D02*
X549500D01*
X532900Y35100D02*
X549500D01*
Y22900D02*
Y35100D01*
X532900Y22900D02*
Y35100D01*
X729700Y22900D02*
Y35100D01*
X746300Y22900D02*
Y35100D01*
X729700D02*
X746300D01*
X729700Y22900D02*
X746300D01*
X736000Y29000D02*
X740000D01*
X738000Y27000D02*
Y31000D01*
X934800Y27000D02*
Y31000D01*
X932800Y29000D02*
X936800D01*
X926500Y22900D02*
X943100D01*
X926500Y35100D02*
X943100D01*
Y22900D02*
Y35100D01*
X926500Y22900D02*
Y35100D01*
X1123300Y22900D02*
Y35100D01*
X1139900Y22900D02*
Y35100D01*
X1123300D02*
X1139900D01*
X1123300Y22900D02*
X1139900D01*
X1129600Y29000D02*
X1133600D01*
X1131600Y27000D02*
Y31000D01*
X1328400Y27000D02*
Y31000D01*
X1326400Y29000D02*
X1330400D01*
X1320100Y22900D02*
X1336700D01*
X1320100Y35100D02*
X1336700D01*
Y22900D02*
Y35100D01*
X1320100Y22900D02*
Y35100D01*
X1516900Y22900D02*
Y35100D01*
X1533500Y22900D02*
Y35100D01*
X1516900D02*
X1533500D01*
X1516900Y22900D02*
X1533500D01*
X1523200Y29000D02*
X1527200D01*
X1525200Y27000D02*
Y31000D01*
X1722000Y27000D02*
Y31000D01*
X1720000Y29000D02*
X1724000D01*
X1713700Y22900D02*
X1730300D01*
X1713700Y35100D02*
X1730300D01*
Y22900D02*
Y35100D01*
X1713700Y22900D02*
Y35100D01*
X1910500Y22900D02*
Y35100D01*
X1927100Y22900D02*
Y35100D01*
X1910500D02*
X1927100D01*
X1910500Y22900D02*
X1927100D01*
X1916800Y29000D02*
X1920800D01*
X1918800Y27000D02*
Y31000D01*
X180400Y27000D02*
Y31000D01*
X178400Y29000D02*
X182400D01*
X172100Y22900D02*
X188700D01*
X172100Y35100D02*
X188700D01*
Y22900D02*
Y35100D01*
X172100Y22900D02*
Y35100D01*
X368900Y22900D02*
Y35100D01*
X385500Y22900D02*
Y35100D01*
X368900D02*
X385500D01*
X368900Y22900D02*
X385500D01*
X375200Y29000D02*
X379200D01*
X377200Y27000D02*
Y31000D01*
X574000Y27000D02*
Y31000D01*
X572000Y29000D02*
X576000D01*
X565700Y22900D02*
X582300D01*
X565700Y35100D02*
X582300D01*
Y22900D02*
Y35100D01*
X565700Y22900D02*
Y35100D01*
X762500Y22900D02*
Y35100D01*
X779100Y22900D02*
Y35100D01*
X762500D02*
X779100D01*
X762500Y22900D02*
X779100D01*
X768800Y29000D02*
X772800D01*
X770800Y27000D02*
Y31000D01*
X967600Y27000D02*
Y31000D01*
X965600Y29000D02*
X969600D01*
X959300Y22900D02*
X975900D01*
X959300Y35100D02*
X975900D01*
Y22900D02*
Y35100D01*
X959300Y22900D02*
Y35100D01*
X1156100Y22900D02*
Y35100D01*
X1172700Y22900D02*
Y35100D01*
X1156100D02*
X1172700D01*
X1156100Y22900D02*
X1172700D01*
X1162400Y29000D02*
X1166400D01*
X1164400Y27000D02*
Y31000D01*
X1361200Y27000D02*
Y31000D01*
X1359200Y29000D02*
X1363200D01*
X1352900Y22900D02*
X1369500D01*
X1352900Y35100D02*
X1369500D01*
Y22900D02*
Y35100D01*
X1352900Y22900D02*
Y35100D01*
X1549700Y22900D02*
Y35100D01*
X1566300Y22900D02*
Y35100D01*
X1549700D02*
X1566300D01*
X1549700Y22900D02*
X1566300D01*
X1556000Y29000D02*
X1560000D01*
X1558000Y27000D02*
Y31000D01*
X1754800Y27000D02*
Y31000D01*
X1752800Y29000D02*
X1756800D01*
X1746500Y22900D02*
X1763100D01*
X1746500Y35100D02*
X1763100D01*
Y22900D02*
Y35100D01*
X1746500Y22900D02*
Y35100D01*
X1943300Y22900D02*
Y35100D01*
X1959900Y22900D02*
Y35100D01*
X1943300D02*
X1959900D01*
X1943300Y22900D02*
X1959900D01*
X1949600Y29000D02*
X1953600D01*
X1951600Y27000D02*
Y31000D01*
X163000Y26700D02*
X167000D01*
X165000Y24700D02*
Y28700D01*
X161000Y17800D02*
Y35600D01*
X169000Y17800D02*
Y35600D01*
X161000Y17800D02*
X169000D01*
X161000Y35600D02*
X169000D01*
X64000Y26700D02*
X68000D01*
X66000Y24700D02*
Y28700D01*
X62000Y17800D02*
Y35600D01*
X70000Y17800D02*
Y35600D01*
X62000Y17800D02*
X70000D01*
X62000Y35600D02*
X70000D01*
X130000Y31300D02*
X134000D01*
X132000Y29300D02*
Y33300D01*
X136000Y22400D02*
Y40200D01*
X128000Y22400D02*
Y40200D01*
X136000D01*
X128000Y22400D02*
X136000D01*
X31000Y31300D02*
X35000D01*
X33000Y29300D02*
Y33300D01*
X37000Y22400D02*
Y40200D01*
X29000Y22400D02*
Y40200D01*
X37000D01*
X29000Y22400D02*
X37000D01*
X4600Y26900D02*
Y30900D01*
X2600Y28900D02*
X6600D01*
X199400D02*
X203400D01*
X201400Y26900D02*
Y30900D01*
X398200Y26900D02*
Y30900D01*
X396200Y28900D02*
X400200D01*
X593000D02*
X597000D01*
X595000Y26900D02*
Y30900D01*
X791800Y26900D02*
Y30900D01*
X789800Y28900D02*
X793800D01*
X986600D02*
X990600D01*
X988600Y26900D02*
Y30900D01*
X1185400Y26900D02*
Y30900D01*
X1183400Y28900D02*
X1187400D01*
X1380200D02*
X1384200D01*
X1382200Y26900D02*
Y30900D01*
X1579000Y26900D02*
Y30900D01*
X1577000Y28900D02*
X1581000D01*
X1773800D02*
X1777800D01*
X1775800Y26900D02*
Y30900D01*
X192500Y26900D02*
Y30900D01*
X190500Y28900D02*
X194500D01*
X387300D02*
X391300D01*
X389300Y26900D02*
Y30900D01*
X586100Y26900D02*
Y30900D01*
X584100Y28900D02*
X588100D01*
X780900D02*
X784900D01*
X782900Y26900D02*
Y30900D01*
X979700Y26900D02*
Y30900D01*
X977700Y28900D02*
X981700D01*
X1174500D02*
X1178500D01*
X1176500Y26900D02*
Y30900D01*
X1373300Y26900D02*
Y30900D01*
X1371300Y28900D02*
X1375300D01*
X1568100D02*
X1572100D01*
X1570100Y26900D02*
Y30900D01*
X1766900Y26900D02*
Y30900D01*
X1764900Y28900D02*
X1768900D01*
X1961700D02*
X1965700D01*
X1963700Y26900D02*
Y30900D01*
X187200Y11000D02*
Y15000D01*
X185200Y13000D02*
X189200D01*
X187200Y43000D02*
Y47000D01*
X185200Y45000D02*
X189200D01*
X9300Y11000D02*
Y15000D01*
X7300Y13000D02*
X11300D01*
X9300Y43000D02*
Y47000D01*
X7300Y45000D02*
X11300D01*
X-2000Y0D02*
X2000D01*
X0Y-2000D02*
Y2000D01*
M02*
