G04*
G04 #@! TF.GenerationSoftware,Altium Limited,Altium Designer,25.8.1 (18)*
G04*
G04 Layer_Physical_Order=2*
G04 Layer_Color=16711680*
%FSLAX25Y25*%
%MOIN*%
G70*
G04*
G04 #@! TF.SameCoordinates,390A0C2E-5F43-43DE-B89E-D80C0B79A47B*
G04*
G04*
G04 #@! TF.FilePolarity,Positive*
G04*
G01*
G75*
%ADD32C,0.01000*%
%ADD33C,0.03400*%
%ADD34R,19.64800X0.18000*%
D32*
X1771200Y55400D02*
D03*
Y40000D02*
D03*
Y18000D02*
D03*
Y2600D02*
D03*
X1574400Y55400D02*
D03*
Y40000D02*
D03*
Y18000D02*
D03*
Y2600D02*
D03*
X1377600Y55400D02*
D03*
Y40000D02*
D03*
Y18000D02*
D03*
Y2600D02*
D03*
X1180800Y55400D02*
D03*
Y40000D02*
D03*
Y18000D02*
D03*
Y2600D02*
D03*
X984000Y55400D02*
D03*
Y40000D02*
D03*
Y18000D02*
D03*
Y2600D02*
D03*
X787200Y55400D02*
D03*
Y40000D02*
D03*
Y18000D02*
D03*
Y2600D02*
D03*
X590400Y55400D02*
D03*
Y40000D02*
D03*
Y18000D02*
D03*
Y2600D02*
D03*
X393600Y55400D02*
D03*
Y40000D02*
D03*
Y18000D02*
D03*
Y2600D02*
D03*
X196800D02*
D03*
Y18000D02*
D03*
Y40000D02*
D03*
Y55400D02*
D03*
D33*
X1776600Y33500D02*
D03*
X1767700D02*
D03*
X1964500D02*
D03*
X1579800D02*
D03*
X1570900D02*
D03*
X1775000Y28900D02*
D03*
X1766100D02*
D03*
X1962900D02*
D03*
X1578200D02*
D03*
X1569300D02*
D03*
X1374100Y33500D02*
D03*
X1186200D02*
D03*
X1383000D02*
D03*
X989400D02*
D03*
X980500D02*
D03*
X1177300D02*
D03*
X1372500Y28900D02*
D03*
X1184600D02*
D03*
X1381400D02*
D03*
X1175700D02*
D03*
X987800D02*
D03*
X1767700Y24300D02*
D03*
X1964500D02*
D03*
X1776600D02*
D03*
X1579800D02*
D03*
X1570900D02*
D03*
X1186200D02*
D03*
X1383000D02*
D03*
X1374100D02*
D03*
X980500D02*
D03*
X1177300D02*
D03*
X989400D02*
D03*
X792600Y33500D02*
D03*
X783700D02*
D03*
X595800D02*
D03*
X586900D02*
D03*
X791000Y28900D02*
D03*
X782100D02*
D03*
X978900D02*
D03*
X594200D02*
D03*
X585300D02*
D03*
X390100Y33500D02*
D03*
X202200D02*
D03*
X399000D02*
D03*
X193300D02*
D03*
X5400D02*
D03*
X397400Y28900D02*
D03*
X388500D02*
D03*
X191700D02*
D03*
X3800D02*
D03*
X200600D02*
D03*
X792600Y24300D02*
D03*
X783700D02*
D03*
X595800D02*
D03*
X390100D02*
D03*
X586900D02*
D03*
X399000D02*
D03*
X5400D02*
D03*
X202200D02*
D03*
X193300D02*
D03*
D34*
X984400Y28900D02*
D03*
M02*
