G04*
G04 #@! TF.GenerationSoftware,Altium Limited,Altium Designer,25.8.1 (18)*
G04*
G04 Layer_Physical_Order=1*
G04 Layer_Color=255*
%FSLAX25Y25*%
%MOIN*%
G70*
G04*
G04 #@! TF.SameCoordinates,390A0C2E-5F43-43DE-B89E-D80C0B79A47B*
G04*
G04*
G04 #@! TF.FilePolarity,Positive*
G04*
G01*
G75*
%ADD14R,0.06800X0.05400*%
%ADD15R,0.05500X0.04800*%
%ADD21R,0.15400X0.11400*%
%ADD22R,0.06200X0.13200*%
%ADD23C,0.04000*%
%ADD24C,0.10000*%
%ADD25C,0.05000*%
%ADD26C,0.08000*%
%ADD27R,0.14700X0.12100*%
%ADD28R,0.14300X0.12100*%
%ADD29R,0.14400X0.12100*%
%ADD30R,0.14500X0.12100*%
%ADD31R,0.14100X0.12100*%
%ADD32C,0.01000*%
%ADD33C,0.03400*%
D14*
X361800Y32300D02*
D03*
Y21100D02*
D03*
X262800Y32300D02*
D03*
Y21100D02*
D03*
X328800Y25700D02*
D03*
Y36900D02*
D03*
X229800Y25700D02*
D03*
Y36900D02*
D03*
X558600Y32300D02*
D03*
Y21100D02*
D03*
X459600Y32300D02*
D03*
Y21100D02*
D03*
X525600Y25700D02*
D03*
Y36900D02*
D03*
X426600Y25700D02*
D03*
Y36900D02*
D03*
X755400Y32300D02*
D03*
Y21100D02*
D03*
X656400Y32300D02*
D03*
Y21100D02*
D03*
X722400Y25700D02*
D03*
Y36900D02*
D03*
X623400Y25700D02*
D03*
Y36900D02*
D03*
X952200Y32300D02*
D03*
Y21100D02*
D03*
X853200Y32300D02*
D03*
Y21100D02*
D03*
X919200Y25700D02*
D03*
Y36900D02*
D03*
X820200Y25700D02*
D03*
Y36900D02*
D03*
X1149000Y32300D02*
D03*
Y21100D02*
D03*
X1050000Y32300D02*
D03*
Y21100D02*
D03*
X1116000Y25700D02*
D03*
Y36900D02*
D03*
X1017000Y25700D02*
D03*
Y36900D02*
D03*
X1345800Y32300D02*
D03*
Y21100D02*
D03*
X1246800Y32300D02*
D03*
Y21100D02*
D03*
X1312800Y25700D02*
D03*
Y36900D02*
D03*
X1213800Y25700D02*
D03*
Y36900D02*
D03*
X1542600Y32300D02*
D03*
Y21100D02*
D03*
X1443600Y32300D02*
D03*
Y21100D02*
D03*
X1509600Y25700D02*
D03*
Y36900D02*
D03*
X1410600Y25700D02*
D03*
Y36900D02*
D03*
X1739400Y32300D02*
D03*
Y21100D02*
D03*
X1640400Y32300D02*
D03*
Y21100D02*
D03*
X1706400Y25700D02*
D03*
Y36900D02*
D03*
X1607400Y25700D02*
D03*
Y36900D02*
D03*
X1936200Y32300D02*
D03*
Y21100D02*
D03*
X1903200Y25700D02*
D03*
Y36900D02*
D03*
X1804200Y25700D02*
D03*
Y36900D02*
D03*
X1837200Y32300D02*
D03*
Y21100D02*
D03*
X165000Y32300D02*
D03*
Y21100D02*
D03*
X66000Y32300D02*
D03*
Y21100D02*
D03*
X132000Y25700D02*
D03*
Y36900D02*
D03*
X33000Y25700D02*
D03*
Y36900D02*
D03*
D15*
X372250Y32200D02*
D03*
X349350D02*
D03*
X339450Y25800D02*
D03*
X316550D02*
D03*
X306650D02*
D03*
X283750D02*
D03*
X306650Y32200D02*
D03*
X283750D02*
D03*
X273850D02*
D03*
X250950D02*
D03*
X241050Y25800D02*
D03*
X218150D02*
D03*
X349350D02*
D03*
X372250D02*
D03*
X250950D02*
D03*
X273850D02*
D03*
X316550Y32200D02*
D03*
X339450D02*
D03*
X218150D02*
D03*
X241050D02*
D03*
X569050D02*
D03*
X546150D02*
D03*
X536250Y25800D02*
D03*
X513350D02*
D03*
X503450Y32200D02*
D03*
X480550D02*
D03*
X503450Y25800D02*
D03*
X480550D02*
D03*
X470650Y32200D02*
D03*
X447750D02*
D03*
X437850Y25800D02*
D03*
X414950D02*
D03*
X546150D02*
D03*
X569050D02*
D03*
X447750D02*
D03*
X470650D02*
D03*
X513350Y32200D02*
D03*
X536250D02*
D03*
X414950D02*
D03*
X437850D02*
D03*
X765850D02*
D03*
X742950D02*
D03*
X733050Y25800D02*
D03*
X710150D02*
D03*
X700250D02*
D03*
X677350D02*
D03*
X700250Y32200D02*
D03*
X677350D02*
D03*
X667450D02*
D03*
X644550D02*
D03*
X634650Y25800D02*
D03*
X611750D02*
D03*
X742950D02*
D03*
X765850D02*
D03*
X644550D02*
D03*
X667450D02*
D03*
X710150Y32200D02*
D03*
X733050D02*
D03*
X611750D02*
D03*
X634650D02*
D03*
X962650D02*
D03*
X939750D02*
D03*
X929850Y25800D02*
D03*
X906950D02*
D03*
X897050Y32200D02*
D03*
X874150D02*
D03*
X897050Y25800D02*
D03*
X874150D02*
D03*
X864250Y32200D02*
D03*
X841350D02*
D03*
X831450Y25800D02*
D03*
X808550D02*
D03*
X939750D02*
D03*
X962650D02*
D03*
X841350D02*
D03*
X864250D02*
D03*
X906950Y32200D02*
D03*
X929850D02*
D03*
X808550D02*
D03*
X831450D02*
D03*
X1159450D02*
D03*
X1136550D02*
D03*
X1126650Y25800D02*
D03*
X1103750D02*
D03*
X1093850D02*
D03*
X1070950D02*
D03*
X1093850Y32200D02*
D03*
X1070950D02*
D03*
X1061050D02*
D03*
X1038150D02*
D03*
X1028250Y25800D02*
D03*
X1005350D02*
D03*
X1136550D02*
D03*
X1159450D02*
D03*
X1038150D02*
D03*
X1061050D02*
D03*
X1103750Y32200D02*
D03*
X1126650D02*
D03*
X1005350D02*
D03*
X1028250D02*
D03*
X1356250D02*
D03*
X1333350D02*
D03*
X1323450Y25800D02*
D03*
X1300550D02*
D03*
X1290650Y32200D02*
D03*
X1267750D02*
D03*
X1290650Y25800D02*
D03*
X1267750D02*
D03*
X1257850Y32200D02*
D03*
X1234950D02*
D03*
X1225050Y25800D02*
D03*
X1202150D02*
D03*
X1333350D02*
D03*
X1356250D02*
D03*
X1234950D02*
D03*
X1257850D02*
D03*
X1300550Y32200D02*
D03*
X1323450D02*
D03*
X1202150D02*
D03*
X1225050D02*
D03*
X1553050D02*
D03*
X1530150D02*
D03*
X1520250Y25800D02*
D03*
X1497350D02*
D03*
X1487450D02*
D03*
X1464550D02*
D03*
X1487450Y32200D02*
D03*
X1464550D02*
D03*
X1454650D02*
D03*
X1431750D02*
D03*
X1421850Y25800D02*
D03*
X1398950D02*
D03*
X1530150D02*
D03*
X1553050D02*
D03*
X1431750D02*
D03*
X1454650D02*
D03*
X1497350Y32200D02*
D03*
X1520250D02*
D03*
X1398950D02*
D03*
X1421850D02*
D03*
X1749850D02*
D03*
X1726950D02*
D03*
X1717050Y25800D02*
D03*
X1694150D02*
D03*
X1684250Y32200D02*
D03*
X1661350D02*
D03*
X1684250Y25800D02*
D03*
X1661350D02*
D03*
X1651450Y32200D02*
D03*
X1628550D02*
D03*
X1618650Y25800D02*
D03*
X1595750D02*
D03*
X1726950D02*
D03*
X1749850D02*
D03*
X1628550D02*
D03*
X1651450D02*
D03*
X1694150Y32200D02*
D03*
X1717050D02*
D03*
X1595750D02*
D03*
X1618650D02*
D03*
X1946650D02*
D03*
X1923750D02*
D03*
X1913850Y25800D02*
D03*
X1890950D02*
D03*
X1881050D02*
D03*
X1858150D02*
D03*
X1881050Y32200D02*
D03*
X1858150D02*
D03*
X1848250D02*
D03*
X1825350D02*
D03*
X1815450Y25800D02*
D03*
X1792550D02*
D03*
X1956550D02*
D03*
X1759750D02*
D03*
X1366150D02*
D03*
X1562950D02*
D03*
X1169350D02*
D03*
X972550D02*
D03*
X775750D02*
D03*
X578950D02*
D03*
X382150D02*
D03*
X185350D02*
D03*
X1782650Y32200D02*
D03*
X1585850D02*
D03*
X1389050D02*
D03*
X1192250D02*
D03*
X995450D02*
D03*
X1782650Y25800D02*
D03*
X1585850D02*
D03*
X1389050D02*
D03*
X1192250D02*
D03*
X995450D02*
D03*
X798650Y32200D02*
D03*
X601850D02*
D03*
X405050D02*
D03*
X208250D02*
D03*
X11450D02*
D03*
X798650Y25800D02*
D03*
X601850D02*
D03*
X11450D02*
D03*
X405050D02*
D03*
X208250D02*
D03*
X1759750Y32200D02*
D03*
X1956550D02*
D03*
X1562950D02*
D03*
X1366150D02*
D03*
X1169350D02*
D03*
X972550D02*
D03*
X578950D02*
D03*
X775750D02*
D03*
X185350D02*
D03*
X382150D02*
D03*
X1923750Y25800D02*
D03*
X1946650D02*
D03*
X1825350D02*
D03*
X1848250D02*
D03*
X1890950Y32200D02*
D03*
X1913850D02*
D03*
X1792550D02*
D03*
X1815450D02*
D03*
X21350Y25800D02*
D03*
Y32200D02*
D03*
X44250Y25800D02*
D03*
Y32200D02*
D03*
X54150Y25800D02*
D03*
Y32200D02*
D03*
X77050Y25800D02*
D03*
Y32200D02*
D03*
X86950Y25800D02*
D03*
Y32200D02*
D03*
X109850Y25800D02*
D03*
Y32200D02*
D03*
X119750Y25800D02*
D03*
Y32200D02*
D03*
X142650Y25800D02*
D03*
Y32200D02*
D03*
X152550Y25800D02*
D03*
Y32200D02*
D03*
X175450Y25800D02*
D03*
Y32200D02*
D03*
D21*
X384000Y13000D02*
D03*
X206100D02*
D03*
X384000Y45000D02*
D03*
X206100D02*
D03*
X580800Y13000D02*
D03*
X402900D02*
D03*
X580800Y45000D02*
D03*
X402900D02*
D03*
X777600Y13000D02*
D03*
X599700D02*
D03*
X777600Y45000D02*
D03*
X599700D02*
D03*
X974400Y13000D02*
D03*
X796500D02*
D03*
X974400Y45000D02*
D03*
X796500D02*
D03*
X1171200Y13000D02*
D03*
X993300D02*
D03*
X1171200Y45000D02*
D03*
X993300D02*
D03*
X1368000Y13000D02*
D03*
X1190100D02*
D03*
X1368000Y45000D02*
D03*
X1190100D02*
D03*
X1564800Y13000D02*
D03*
X1386900D02*
D03*
X1564800Y45000D02*
D03*
X1386900D02*
D03*
X1761600Y13000D02*
D03*
X1583700D02*
D03*
X1761600Y45000D02*
D03*
X1583700D02*
D03*
X1958400Y13000D02*
D03*
X1780500D02*
D03*
X1958400Y45000D02*
D03*
X1780500D02*
D03*
X9300Y13000D02*
D03*
X187200D02*
D03*
X9300Y45000D02*
D03*
X187200D02*
D03*
D22*
X1766900Y28900D02*
D03*
X1963700D02*
D03*
X1775800D02*
D03*
X1579000D02*
D03*
X1570100D02*
D03*
X1382200D02*
D03*
X1373300D02*
D03*
X988600D02*
D03*
X1185400D02*
D03*
X1176500D02*
D03*
X782900D02*
D03*
X979700D02*
D03*
X791800D02*
D03*
X586100D02*
D03*
X595000D02*
D03*
X201400D02*
D03*
X398200D02*
D03*
X389300D02*
D03*
X192500D02*
D03*
X4600D02*
D03*
D23*
X1937600Y30900D02*
Y31600D01*
X1936900Y32300D02*
X1937600Y31600D01*
X1935557Y21043D02*
X1936200Y20400D01*
X1956550Y14850D02*
X1958400Y13000D01*
X1782550Y25800D02*
Y32200D01*
X1798500Y37600D02*
X1804200D01*
X1793500Y32600D02*
X1798500Y37600D01*
X1815350Y25400D02*
X1815750Y25800D01*
X1815000Y25400D02*
X1815350D01*
X1809800Y20200D02*
X1815000Y25400D01*
X1795900Y20200D02*
X1809800D01*
X1793000Y25800D02*
X1793400Y25400D01*
X1792650Y25800D02*
X1793000D01*
X1793400Y22700D02*
X1795900Y20200D01*
X1793400Y22700D02*
Y25400D01*
X1815350Y31800D02*
X1815750Y32200D01*
X1811600Y31800D02*
X1815350D01*
X1806200Y26400D02*
X1811600Y31800D01*
X1804200Y26400D02*
X1806200D01*
X1831007Y21493D02*
X1836107D01*
X1827100Y25400D02*
X1831007Y21493D01*
X1836107D02*
X1837200Y20400D01*
X1825750Y25400D02*
X1827100D01*
X1825350Y25800D02*
X1825750Y25400D01*
Y32600D02*
X1826600D01*
X1847943Y26107D02*
X1848250Y25800D01*
X1844093Y26107D02*
X1847943D01*
X1838600Y31600D02*
X1844093Y26107D01*
X1847500Y32600D02*
Y32950D01*
Y32600D02*
X1847900Y32200D01*
X1842650Y37800D02*
X1847500Y32950D01*
X1847900Y32200D02*
X1848250D01*
X1826600Y32600D02*
X1831800Y37800D01*
X1842650D01*
X1825350Y32200D02*
X1825750Y32600D01*
X1858150Y25800D02*
X1881050D01*
X1858150Y32200D02*
X1881050D01*
X1891300Y25800D02*
X1891700Y25400D01*
Y25050D02*
Y25400D01*
X1901800Y36200D02*
X1902800Y37200D01*
X1898100Y36200D02*
X1901800D01*
X1894500Y32600D02*
X1898100Y36200D01*
X1891700Y32600D02*
X1894500D01*
X1891650Y32550D02*
X1891700Y32600D01*
X1891650Y32200D02*
Y32550D01*
X1913500Y25800D02*
X1913850D01*
X1913100Y25400D02*
X1913500Y25800D01*
X1913100Y24200D02*
Y25400D01*
X1909100Y20200D02*
X1913100Y24200D01*
X1896550Y20200D02*
X1909100D01*
X1890950Y25800D02*
X1891300D01*
X1891700Y25050D02*
X1896550Y20200D01*
X1913450Y31800D02*
X1913850Y32200D01*
X1909500Y31800D02*
X1913450D01*
X1904600Y26900D02*
X1909500Y31800D01*
X1904600Y26400D02*
Y26900D01*
X1904100Y26400D02*
X1904600D01*
X1929557Y21043D02*
X1935557D01*
X1925200Y25400D02*
X1929557Y21043D01*
X1924150Y25400D02*
X1925200D01*
X1923750Y25800D02*
X1924150Y25400D01*
Y32600D02*
X1925600D01*
X1937600Y30900D02*
X1942300Y26200D01*
X1947350D01*
X1936200Y32300D02*
X1936900D01*
X1945900Y32600D02*
Y35457D01*
Y32600D02*
X1946300Y32200D01*
X1943557Y37800D02*
X1945900Y35457D01*
X1946300Y32200D02*
X1947400D01*
X1925600Y32600D02*
X1930800Y37800D01*
X1943557D01*
X1923750Y32200D02*
X1924150Y32600D01*
X1956550Y14850D02*
Y25800D01*
Y41350D02*
X1961500Y46300D01*
X1956550Y32200D02*
Y41350D01*
X1740800Y30900D02*
Y31600D01*
X1740100Y32300D02*
X1740800Y31600D01*
X1738757Y21043D02*
X1739400Y20400D01*
X1759750Y14850D02*
X1761600Y13000D01*
X1585750Y25800D02*
Y32200D01*
X1601700Y37600D02*
X1607400D01*
X1596700Y32600D02*
X1601700Y37600D01*
X1618550Y25400D02*
X1618950Y25800D01*
X1618200Y25400D02*
X1618550D01*
X1613000Y20200D02*
X1618200Y25400D01*
X1599100Y20200D02*
X1613000D01*
X1596200Y25800D02*
X1596600Y25400D01*
X1595850Y25800D02*
X1596200D01*
X1596600Y22700D02*
X1599100Y20200D01*
X1596600Y22700D02*
Y25400D01*
X1618550Y31800D02*
X1618950Y32200D01*
X1614800Y31800D02*
X1618550D01*
X1609400Y26400D02*
X1614800Y31800D01*
X1607400Y26400D02*
X1609400D01*
X1634207Y21493D02*
X1639307D01*
X1630300Y25400D02*
X1634207Y21493D01*
X1639307D02*
X1640400Y20400D01*
X1628950Y25400D02*
X1630300D01*
X1628550Y25800D02*
X1628950Y25400D01*
Y32600D02*
X1629800D01*
X1651143Y26107D02*
X1651450Y25800D01*
X1647293Y26107D02*
X1651143D01*
X1641800Y31600D02*
X1647293Y26107D01*
X1650700Y32600D02*
Y32950D01*
Y32600D02*
X1651100Y32200D01*
X1645850Y37800D02*
X1650700Y32950D01*
X1651100Y32200D02*
X1651450D01*
X1629800Y32600D02*
X1635000Y37800D01*
X1645850D01*
X1628550Y32200D02*
X1628950Y32600D01*
X1661350Y25800D02*
X1684250D01*
X1661350Y32200D02*
X1684250D01*
X1694500Y25800D02*
X1694900Y25400D01*
Y25050D02*
Y25400D01*
X1705000Y36200D02*
X1706000Y37200D01*
X1701300Y36200D02*
X1705000D01*
X1697700Y32600D02*
X1701300Y36200D01*
X1694900Y32600D02*
X1697700D01*
X1694850Y32550D02*
X1694900Y32600D01*
X1694850Y32200D02*
Y32550D01*
X1716700Y25800D02*
X1717050D01*
X1716300Y25400D02*
X1716700Y25800D01*
X1716300Y24200D02*
Y25400D01*
X1712300Y20200D02*
X1716300Y24200D01*
X1699750Y20200D02*
X1712300D01*
X1694150Y25800D02*
X1694500D01*
X1694900Y25050D02*
X1699750Y20200D01*
X1716650Y31800D02*
X1717050Y32200D01*
X1712700Y31800D02*
X1716650D01*
X1707800Y26900D02*
X1712700Y31800D01*
X1707800Y26400D02*
Y26900D01*
X1707300Y26400D02*
X1707800D01*
X1732757Y21043D02*
X1738757D01*
X1728400Y25400D02*
X1732757Y21043D01*
X1727350Y25400D02*
X1728400D01*
X1726950Y25800D02*
X1727350Y25400D01*
Y32600D02*
X1728800D01*
X1740800Y30900D02*
X1745500Y26200D01*
X1750550D01*
X1739400Y32300D02*
X1740100D01*
X1749100Y32600D02*
Y35457D01*
Y32600D02*
X1749500Y32200D01*
X1746757Y37800D02*
X1749100Y35457D01*
X1749500Y32200D02*
X1750600D01*
X1728800Y32600D02*
X1734000Y37800D01*
X1746757D01*
X1726950Y32200D02*
X1727350Y32600D01*
X1759750Y14850D02*
Y25800D01*
Y41350D02*
X1764700Y46300D01*
X1759750Y32200D02*
Y41350D01*
X1544000Y30900D02*
Y31600D01*
X1543300Y32300D02*
X1544000Y31600D01*
X1541957Y21043D02*
X1542600Y20400D01*
X1562950Y14850D02*
X1564800Y13000D01*
X1388950Y25800D02*
Y32200D01*
X1404900Y37600D02*
X1410600D01*
X1399900Y32600D02*
X1404900Y37600D01*
X1421750Y25400D02*
X1422150Y25800D01*
X1421400Y25400D02*
X1421750D01*
X1416200Y20200D02*
X1421400Y25400D01*
X1402300Y20200D02*
X1416200D01*
X1399400Y25800D02*
X1399800Y25400D01*
X1399050Y25800D02*
X1399400D01*
X1399800Y22700D02*
X1402300Y20200D01*
X1399800Y22700D02*
Y25400D01*
X1421750Y31800D02*
X1422150Y32200D01*
X1418000Y31800D02*
X1421750D01*
X1412600Y26400D02*
X1418000Y31800D01*
X1410600Y26400D02*
X1412600D01*
X1437407Y21493D02*
X1442507D01*
X1433500Y25400D02*
X1437407Y21493D01*
X1442507D02*
X1443600Y20400D01*
X1432150Y25400D02*
X1433500D01*
X1431750Y25800D02*
X1432150Y25400D01*
Y32600D02*
X1433000D01*
X1454343Y26107D02*
X1454650Y25800D01*
X1450493Y26107D02*
X1454343D01*
X1445000Y31600D02*
X1450493Y26107D01*
X1453900Y32600D02*
Y32950D01*
Y32600D02*
X1454300Y32200D01*
X1449050Y37800D02*
X1453900Y32950D01*
X1454300Y32200D02*
X1454650D01*
X1433000Y32600D02*
X1438200Y37800D01*
X1449050D01*
X1431750Y32200D02*
X1432150Y32600D01*
X1464550Y25800D02*
X1487450D01*
X1464550Y32200D02*
X1487450D01*
X1497700Y25800D02*
X1498100Y25400D01*
Y25050D02*
Y25400D01*
X1508200Y36200D02*
X1509200Y37200D01*
X1504500Y36200D02*
X1508200D01*
X1500900Y32600D02*
X1504500Y36200D01*
X1498100Y32600D02*
X1500900D01*
X1498050Y32550D02*
X1498100Y32600D01*
X1498050Y32200D02*
Y32550D01*
X1519900Y25800D02*
X1520250D01*
X1519500Y25400D02*
X1519900Y25800D01*
X1519500Y24200D02*
Y25400D01*
X1515500Y20200D02*
X1519500Y24200D01*
X1502950Y20200D02*
X1515500D01*
X1497350Y25800D02*
X1497700D01*
X1498100Y25050D02*
X1502950Y20200D01*
X1519850Y31800D02*
X1520250Y32200D01*
X1515900Y31800D02*
X1519850D01*
X1511000Y26900D02*
X1515900Y31800D01*
X1511000Y26400D02*
Y26900D01*
X1510500Y26400D02*
X1511000D01*
X1535957Y21043D02*
X1541957D01*
X1531600Y25400D02*
X1535957Y21043D01*
X1530550Y25400D02*
X1531600D01*
X1530150Y25800D02*
X1530550Y25400D01*
Y32600D02*
X1532000D01*
X1544000Y30900D02*
X1548700Y26200D01*
X1553750D01*
X1542600Y32300D02*
X1543300D01*
X1552300Y32600D02*
Y35457D01*
Y32600D02*
X1552700Y32200D01*
X1549957Y37800D02*
X1552300Y35457D01*
X1552700Y32200D02*
X1553800D01*
X1532000Y32600D02*
X1537200Y37800D01*
X1549957D01*
X1530150Y32200D02*
X1530550Y32600D01*
X1562950Y14850D02*
Y25800D01*
Y41350D02*
X1567900Y46300D01*
X1562950Y32200D02*
Y41350D01*
X1347200Y30900D02*
Y31600D01*
X1346500Y32300D02*
X1347200Y31600D01*
X1345157Y21043D02*
X1345800Y20400D01*
X1366150Y14850D02*
X1368000Y13000D01*
X1192150Y25800D02*
Y32200D01*
X1208100Y37600D02*
X1213800D01*
X1203100Y32600D02*
X1208100Y37600D01*
X1224950Y25400D02*
X1225350Y25800D01*
X1224600Y25400D02*
X1224950D01*
X1219400Y20200D02*
X1224600Y25400D01*
X1205500Y20200D02*
X1219400D01*
X1202600Y25800D02*
X1203000Y25400D01*
X1202250Y25800D02*
X1202600D01*
X1203000Y22700D02*
X1205500Y20200D01*
X1203000Y22700D02*
Y25400D01*
X1224950Y31800D02*
X1225350Y32200D01*
X1221200Y31800D02*
X1224950D01*
X1215800Y26400D02*
X1221200Y31800D01*
X1213800Y26400D02*
X1215800D01*
X1240607Y21493D02*
X1245707D01*
X1236700Y25400D02*
X1240607Y21493D01*
X1245707D02*
X1246800Y20400D01*
X1235350Y25400D02*
X1236700D01*
X1234950Y25800D02*
X1235350Y25400D01*
Y32600D02*
X1236200D01*
X1257543Y26107D02*
X1257850Y25800D01*
X1253693Y26107D02*
X1257543D01*
X1248200Y31600D02*
X1253693Y26107D01*
X1257100Y32600D02*
Y32950D01*
Y32600D02*
X1257500Y32200D01*
X1252250Y37800D02*
X1257100Y32950D01*
X1257500Y32200D02*
X1257850D01*
X1236200Y32600D02*
X1241400Y37800D01*
X1252250D01*
X1234950Y32200D02*
X1235350Y32600D01*
X1267750Y25800D02*
X1290650D01*
X1267750Y32200D02*
X1290650D01*
X1300900Y25800D02*
X1301300Y25400D01*
Y25050D02*
Y25400D01*
X1311400Y36200D02*
X1312400Y37200D01*
X1307700Y36200D02*
X1311400D01*
X1304100Y32600D02*
X1307700Y36200D01*
X1301300Y32600D02*
X1304100D01*
X1301250Y32550D02*
X1301300Y32600D01*
X1301250Y32200D02*
Y32550D01*
X1323100Y25800D02*
X1323450D01*
X1322700Y25400D02*
X1323100Y25800D01*
X1322700Y24200D02*
Y25400D01*
X1318700Y20200D02*
X1322700Y24200D01*
X1306150Y20200D02*
X1318700D01*
X1300550Y25800D02*
X1300900D01*
X1301300Y25050D02*
X1306150Y20200D01*
X1323050Y31800D02*
X1323450Y32200D01*
X1319100Y31800D02*
X1323050D01*
X1314200Y26900D02*
X1319100Y31800D01*
X1314200Y26400D02*
Y26900D01*
X1313700Y26400D02*
X1314200D01*
X1339157Y21043D02*
X1345157D01*
X1334800Y25400D02*
X1339157Y21043D01*
X1333750Y25400D02*
X1334800D01*
X1333350Y25800D02*
X1333750Y25400D01*
Y32600D02*
X1335200D01*
X1347200Y30900D02*
X1351900Y26200D01*
X1356950D01*
X1345800Y32300D02*
X1346500D01*
X1355500Y32600D02*
Y35457D01*
Y32600D02*
X1355900Y32200D01*
X1353157Y37800D02*
X1355500Y35457D01*
X1355900Y32200D02*
X1357000D01*
X1335200Y32600D02*
X1340400Y37800D01*
X1353157D01*
X1333350Y32200D02*
X1333750Y32600D01*
X1366150Y14850D02*
Y25800D01*
Y41350D02*
X1371100Y46300D01*
X1366150Y32200D02*
Y41350D01*
X1150400Y30900D02*
Y31600D01*
X1149700Y32300D02*
X1150400Y31600D01*
X1148357Y21043D02*
X1149000Y20400D01*
X1169350Y14850D02*
X1171200Y13000D01*
X995350Y25800D02*
Y32200D01*
X1011300Y37600D02*
X1017000D01*
X1006300Y32600D02*
X1011300Y37600D01*
X1028150Y25400D02*
X1028550Y25800D01*
X1027800Y25400D02*
X1028150D01*
X1022600Y20200D02*
X1027800Y25400D01*
X1008700Y20200D02*
X1022600D01*
X1005800Y25800D02*
X1006200Y25400D01*
X1005450Y25800D02*
X1005800D01*
X1006200Y22700D02*
X1008700Y20200D01*
X1006200Y22700D02*
Y25400D01*
X1028150Y31800D02*
X1028550Y32200D01*
X1024400Y31800D02*
X1028150D01*
X1019000Y26400D02*
X1024400Y31800D01*
X1017000Y26400D02*
X1019000D01*
X1043807Y21493D02*
X1048907D01*
X1039900Y25400D02*
X1043807Y21493D01*
X1048907D02*
X1050000Y20400D01*
X1038550Y25400D02*
X1039900D01*
X1038150Y25800D02*
X1038550Y25400D01*
Y32600D02*
X1039400D01*
X1060743Y26107D02*
X1061050Y25800D01*
X1056893Y26107D02*
X1060743D01*
X1051400Y31600D02*
X1056893Y26107D01*
X1060300Y32600D02*
Y32950D01*
Y32600D02*
X1060700Y32200D01*
X1055450Y37800D02*
X1060300Y32950D01*
X1060700Y32200D02*
X1061050D01*
X1039400Y32600D02*
X1044600Y37800D01*
X1055450D01*
X1038150Y32200D02*
X1038550Y32600D01*
X1070950Y25800D02*
X1093850D01*
X1070950Y32200D02*
X1093850D01*
X1104100Y25800D02*
X1104500Y25400D01*
Y25050D02*
Y25400D01*
X1114600Y36200D02*
X1115600Y37200D01*
X1110900Y36200D02*
X1114600D01*
X1107300Y32600D02*
X1110900Y36200D01*
X1104500Y32600D02*
X1107300D01*
X1104450Y32550D02*
X1104500Y32600D01*
X1104450Y32200D02*
Y32550D01*
X1126300Y25800D02*
X1126650D01*
X1125900Y25400D02*
X1126300Y25800D01*
X1125900Y24200D02*
Y25400D01*
X1121900Y20200D02*
X1125900Y24200D01*
X1109350Y20200D02*
X1121900D01*
X1103750Y25800D02*
X1104100D01*
X1104500Y25050D02*
X1109350Y20200D01*
X1126250Y31800D02*
X1126650Y32200D01*
X1122300Y31800D02*
X1126250D01*
X1117400Y26900D02*
X1122300Y31800D01*
X1117400Y26400D02*
Y26900D01*
X1116900Y26400D02*
X1117400D01*
X1142357Y21043D02*
X1148357D01*
X1138000Y25400D02*
X1142357Y21043D01*
X1136950Y25400D02*
X1138000D01*
X1136550Y25800D02*
X1136950Y25400D01*
Y32600D02*
X1138400D01*
X1150400Y30900D02*
X1155100Y26200D01*
X1160150D01*
X1149000Y32300D02*
X1149700D01*
X1158700Y32600D02*
Y35457D01*
Y32600D02*
X1159100Y32200D01*
X1156357Y37800D02*
X1158700Y35457D01*
X1159100Y32200D02*
X1160200D01*
X1138400Y32600D02*
X1143600Y37800D01*
X1156357D01*
X1136550Y32200D02*
X1136950Y32600D01*
X1169350Y14850D02*
Y25800D01*
Y41350D02*
X1174300Y46300D01*
X1169350Y32200D02*
Y41350D01*
X953600Y30900D02*
Y31600D01*
X952900Y32300D02*
X953600Y31600D01*
X951557Y21043D02*
X952200Y20400D01*
X972550Y14850D02*
X974400Y13000D01*
X798550Y25800D02*
Y32200D01*
X814500Y37600D02*
X820200D01*
X809500Y32600D02*
X814500Y37600D01*
X831350Y25400D02*
X831750Y25800D01*
X831000Y25400D02*
X831350D01*
X825800Y20200D02*
X831000Y25400D01*
X811900Y20200D02*
X825800D01*
X809000Y25800D02*
X809400Y25400D01*
X808650Y25800D02*
X809000D01*
X809400Y22700D02*
X811900Y20200D01*
X809400Y22700D02*
Y25400D01*
X831350Y31800D02*
X831750Y32200D01*
X827600Y31800D02*
X831350D01*
X822200Y26400D02*
X827600Y31800D01*
X820200Y26400D02*
X822200D01*
X847007Y21493D02*
X852107D01*
X843100Y25400D02*
X847007Y21493D01*
X852107D02*
X853200Y20400D01*
X841750Y25400D02*
X843100D01*
X841350Y25800D02*
X841750Y25400D01*
Y32600D02*
X842600D01*
X863943Y26107D02*
X864250Y25800D01*
X860093Y26107D02*
X863943D01*
X854600Y31600D02*
X860093Y26107D01*
X863500Y32600D02*
Y32950D01*
Y32600D02*
X863900Y32200D01*
X858650Y37800D02*
X863500Y32950D01*
X863900Y32200D02*
X864250D01*
X842600Y32600D02*
X847800Y37800D01*
X858650D01*
X841350Y32200D02*
X841750Y32600D01*
X874150Y25800D02*
X897050D01*
X874150Y32200D02*
X897050D01*
X907300Y25800D02*
X907700Y25400D01*
Y25050D02*
Y25400D01*
X917800Y36200D02*
X918800Y37200D01*
X914100Y36200D02*
X917800D01*
X910500Y32600D02*
X914100Y36200D01*
X907700Y32600D02*
X910500D01*
X907650Y32550D02*
X907700Y32600D01*
X907650Y32200D02*
Y32550D01*
X929500Y25800D02*
X929850D01*
X929100Y25400D02*
X929500Y25800D01*
X929100Y24200D02*
Y25400D01*
X925100Y20200D02*
X929100Y24200D01*
X912550Y20200D02*
X925100D01*
X906950Y25800D02*
X907300D01*
X907700Y25050D02*
X912550Y20200D01*
X929450Y31800D02*
X929850Y32200D01*
X925500Y31800D02*
X929450D01*
X920600Y26900D02*
X925500Y31800D01*
X920600Y26400D02*
Y26900D01*
X920100Y26400D02*
X920600D01*
X945557Y21043D02*
X951557D01*
X941200Y25400D02*
X945557Y21043D01*
X940150Y25400D02*
X941200D01*
X939750Y25800D02*
X940150Y25400D01*
Y32600D02*
X941600D01*
X953600Y30900D02*
X958300Y26200D01*
X963350D01*
X952200Y32300D02*
X952900D01*
X961900Y32600D02*
Y35457D01*
Y32600D02*
X962300Y32200D01*
X959557Y37800D02*
X961900Y35457D01*
X962300Y32200D02*
X963400D01*
X941600Y32600D02*
X946800Y37800D01*
X959557D01*
X939750Y32200D02*
X940150Y32600D01*
X972550Y14850D02*
Y25800D01*
Y41350D02*
X977500Y46300D01*
X972550Y32200D02*
Y41350D01*
X756800Y30900D02*
Y31600D01*
X756100Y32300D02*
X756800Y31600D01*
X754757Y21043D02*
X755400Y20400D01*
X775750Y14850D02*
X777600Y13000D01*
X601750Y25800D02*
Y32200D01*
X617700Y37600D02*
X623400D01*
X612700Y32600D02*
X617700Y37600D01*
X634550Y25400D02*
X634950Y25800D01*
X634200Y25400D02*
X634550D01*
X629000Y20200D02*
X634200Y25400D01*
X615100Y20200D02*
X629000D01*
X612200Y25800D02*
X612600Y25400D01*
X611850Y25800D02*
X612200D01*
X612600Y22700D02*
X615100Y20200D01*
X612600Y22700D02*
Y25400D01*
X634550Y31800D02*
X634950Y32200D01*
X630800Y31800D02*
X634550D01*
X625400Y26400D02*
X630800Y31800D01*
X623400Y26400D02*
X625400D01*
X650207Y21493D02*
X655307D01*
X646300Y25400D02*
X650207Y21493D01*
X655307D02*
X656400Y20400D01*
X644950Y25400D02*
X646300D01*
X644550Y25800D02*
X644950Y25400D01*
Y32600D02*
X645800D01*
X667143Y26107D02*
X667450Y25800D01*
X663293Y26107D02*
X667143D01*
X657800Y31600D02*
X663293Y26107D01*
X666700Y32600D02*
Y32950D01*
Y32600D02*
X667100Y32200D01*
X661850Y37800D02*
X666700Y32950D01*
X667100Y32200D02*
X667450D01*
X645800Y32600D02*
X651000Y37800D01*
X661850D01*
X644550Y32200D02*
X644950Y32600D01*
X677350Y25800D02*
X700250D01*
X677350Y32200D02*
X700250D01*
X710500Y25800D02*
X710900Y25400D01*
Y25050D02*
Y25400D01*
X721000Y36200D02*
X722000Y37200D01*
X717300Y36200D02*
X721000D01*
X713700Y32600D02*
X717300Y36200D01*
X710900Y32600D02*
X713700D01*
X710850Y32550D02*
X710900Y32600D01*
X710850Y32200D02*
Y32550D01*
X732700Y25800D02*
X733050D01*
X732300Y25400D02*
X732700Y25800D01*
X732300Y24200D02*
Y25400D01*
X728300Y20200D02*
X732300Y24200D01*
X715750Y20200D02*
X728300D01*
X710150Y25800D02*
X710500D01*
X710900Y25050D02*
X715750Y20200D01*
X732650Y31800D02*
X733050Y32200D01*
X728700Y31800D02*
X732650D01*
X723800Y26900D02*
X728700Y31800D01*
X723800Y26400D02*
Y26900D01*
X723300Y26400D02*
X723800D01*
X748757Y21043D02*
X754757D01*
X744400Y25400D02*
X748757Y21043D01*
X743350Y25400D02*
X744400D01*
X742950Y25800D02*
X743350Y25400D01*
Y32600D02*
X744800D01*
X756800Y30900D02*
X761500Y26200D01*
X766550D01*
X755400Y32300D02*
X756100D01*
X765100Y32600D02*
Y35457D01*
Y32600D02*
X765500Y32200D01*
X762757Y37800D02*
X765100Y35457D01*
X765500Y32200D02*
X766600D01*
X744800Y32600D02*
X750000Y37800D01*
X762757D01*
X742950Y32200D02*
X743350Y32600D01*
X775750Y14850D02*
Y25800D01*
Y41350D02*
X780700Y46300D01*
X775750Y32200D02*
Y41350D01*
X560000Y30900D02*
Y31600D01*
X559300Y32300D02*
X560000Y31600D01*
X557957Y21043D02*
X558600Y20400D01*
X578950Y14850D02*
X580800Y13000D01*
X404950Y25800D02*
Y32200D01*
X420900Y37600D02*
X426600D01*
X415900Y32600D02*
X420900Y37600D01*
X437750Y25400D02*
X438150Y25800D01*
X437400Y25400D02*
X437750D01*
X432200Y20200D02*
X437400Y25400D01*
X418300Y20200D02*
X432200D01*
X415400Y25800D02*
X415800Y25400D01*
X415050Y25800D02*
X415400D01*
X415800Y22700D02*
X418300Y20200D01*
X415800Y22700D02*
Y25400D01*
X437750Y31800D02*
X438150Y32200D01*
X434000Y31800D02*
X437750D01*
X428600Y26400D02*
X434000Y31800D01*
X426600Y26400D02*
X428600D01*
X453407Y21493D02*
X458507D01*
X449500Y25400D02*
X453407Y21493D01*
X458507D02*
X459600Y20400D01*
X448150Y25400D02*
X449500D01*
X447750Y25800D02*
X448150Y25400D01*
Y32600D02*
X449000D01*
X470343Y26107D02*
X470650Y25800D01*
X466493Y26107D02*
X470343D01*
X461000Y31600D02*
X466493Y26107D01*
X469900Y32600D02*
Y32950D01*
Y32600D02*
X470300Y32200D01*
X465050Y37800D02*
X469900Y32950D01*
X470300Y32200D02*
X470650D01*
X449000Y32600D02*
X454200Y37800D01*
X465050D01*
X447750Y32200D02*
X448150Y32600D01*
X480550Y25800D02*
X503450D01*
X480550Y32200D02*
X503450D01*
X513700Y25800D02*
X514100Y25400D01*
Y25050D02*
Y25400D01*
X524200Y36200D02*
X525200Y37200D01*
X520500Y36200D02*
X524200D01*
X516900Y32600D02*
X520500Y36200D01*
X514100Y32600D02*
X516900D01*
X514050Y32550D02*
X514100Y32600D01*
X514050Y32200D02*
Y32550D01*
X535900Y25800D02*
X536250D01*
X535500Y25400D02*
X535900Y25800D01*
X535500Y24200D02*
Y25400D01*
X531500Y20200D02*
X535500Y24200D01*
X518950Y20200D02*
X531500D01*
X513350Y25800D02*
X513700D01*
X514100Y25050D02*
X518950Y20200D01*
X535850Y31800D02*
X536250Y32200D01*
X531900Y31800D02*
X535850D01*
X527000Y26900D02*
X531900Y31800D01*
X527000Y26400D02*
Y26900D01*
X526500Y26400D02*
X527000D01*
X551957Y21043D02*
X557957D01*
X547600Y25400D02*
X551957Y21043D01*
X546550Y25400D02*
X547600D01*
X546150Y25800D02*
X546550Y25400D01*
Y32600D02*
X548000D01*
X560000Y30900D02*
X564700Y26200D01*
X569750D01*
X558600Y32300D02*
X559300D01*
X568300Y32600D02*
Y35457D01*
Y32600D02*
X568700Y32200D01*
X565957Y37800D02*
X568300Y35457D01*
X568700Y32200D02*
X569800D01*
X548000Y32600D02*
X553200Y37800D01*
X565957D01*
X546150Y32200D02*
X546550Y32600D01*
X578950Y14850D02*
Y25800D01*
Y41350D02*
X583900Y46300D01*
X578950Y32200D02*
Y41350D01*
X363200Y30900D02*
Y31600D01*
X362500Y32300D02*
X363200Y31600D01*
X361157Y21043D02*
X361800Y20400D01*
X382150Y14850D02*
X384000Y13000D01*
X208150Y25800D02*
Y32200D01*
X224100Y37600D02*
X229800D01*
X219100Y32600D02*
X224100Y37600D01*
X240950Y25400D02*
X241350Y25800D01*
X240600Y25400D02*
X240950D01*
X235400Y20200D02*
X240600Y25400D01*
X221500Y20200D02*
X235400D01*
X218600Y25800D02*
X219000Y25400D01*
X218250Y25800D02*
X218600D01*
X219000Y22700D02*
X221500Y20200D01*
X219000Y22700D02*
Y25400D01*
X240950Y31800D02*
X241350Y32200D01*
X237200Y31800D02*
X240950D01*
X231800Y26400D02*
X237200Y31800D01*
X229800Y26400D02*
X231800D01*
X256607Y21493D02*
X261707D01*
X252700Y25400D02*
X256607Y21493D01*
X261707D02*
X262800Y20400D01*
X251350Y25400D02*
X252700D01*
X250950Y25800D02*
X251350Y25400D01*
Y32600D02*
X252200D01*
X273543Y26107D02*
X273850Y25800D01*
X269693Y26107D02*
X273543D01*
X264200Y31600D02*
X269693Y26107D01*
X273100Y32600D02*
Y32950D01*
Y32600D02*
X273500Y32200D01*
X268250Y37800D02*
X273100Y32950D01*
X273500Y32200D02*
X273850D01*
X252200Y32600D02*
X257400Y37800D01*
X268250D01*
X250950Y32200D02*
X251350Y32600D01*
X283750Y25800D02*
X306650D01*
X283750Y32200D02*
X306650D01*
X316900Y25800D02*
X317300Y25400D01*
Y25050D02*
Y25400D01*
X327400Y36200D02*
X328400Y37200D01*
X323700Y36200D02*
X327400D01*
X320100Y32600D02*
X323700Y36200D01*
X317300Y32600D02*
X320100D01*
X317250Y32550D02*
X317300Y32600D01*
X317250Y32200D02*
Y32550D01*
X339100Y25800D02*
X339450D01*
X338700Y25400D02*
X339100Y25800D01*
X338700Y24200D02*
Y25400D01*
X334700Y20200D02*
X338700Y24200D01*
X322150Y20200D02*
X334700D01*
X316550Y25800D02*
X316900D01*
X317300Y25050D02*
X322150Y20200D01*
X339050Y31800D02*
X339450Y32200D01*
X335100Y31800D02*
X339050D01*
X330200Y26900D02*
X335100Y31800D01*
X330200Y26400D02*
Y26900D01*
X329700Y26400D02*
X330200D01*
X355157Y21043D02*
X361157D01*
X350800Y25400D02*
X355157Y21043D01*
X349750Y25400D02*
X350800D01*
X349350Y25800D02*
X349750Y25400D01*
Y32600D02*
X351200D01*
X363200Y30900D02*
X367900Y26200D01*
X372950D01*
X361800Y32300D02*
X362500D01*
X371500Y32600D02*
Y35457D01*
Y32600D02*
X371900Y32200D01*
X369157Y37800D02*
X371500Y35457D01*
X371900Y32200D02*
X373000D01*
X351200Y32600D02*
X356400Y37800D01*
X369157D01*
X349350Y32200D02*
X349750Y32600D01*
X382150Y14850D02*
Y25800D01*
Y41350D02*
X387100Y46300D01*
X382150Y32200D02*
Y41350D01*
X185350Y14850D02*
X187200Y13000D01*
X185350Y14850D02*
Y25800D01*
Y41350D02*
X190300Y46300D01*
X185350Y32200D02*
Y41350D01*
X175100Y32200D02*
X176200D01*
X159600Y37800D02*
X172357D01*
X174700Y32600D02*
X175100Y32200D01*
X172357Y37800D02*
X174700Y35457D01*
Y32600D02*
Y35457D01*
X165700Y32300D02*
X166400Y31600D01*
X165000Y32300D02*
X165700D01*
X166400Y30900D02*
X171100Y26200D01*
X176150D01*
X166400Y30900D02*
Y31600D01*
X154000Y25400D02*
X158357Y21043D01*
X164357D02*
X165000Y20400D01*
X152550Y25800D02*
X152950Y25400D01*
X154000D01*
X158357Y21043D02*
X164357D01*
X152550Y32200D02*
X152950Y32600D01*
X154400D02*
X159600Y37800D01*
X152950Y32600D02*
X154400D01*
X142250Y31800D02*
X142650Y32200D01*
X132900Y26400D02*
X133400D01*
X138300Y31800D02*
X142250D01*
X133400Y26400D02*
Y26900D01*
X138300Y31800D01*
X141900Y25400D02*
X142300Y25800D01*
X141900Y24200D02*
Y25400D01*
X142300Y25800D02*
X142650D01*
X137900Y20200D02*
X141900Y24200D01*
X125350Y20200D02*
X137900D01*
X119750Y25800D02*
X120100D01*
X120500Y25400D01*
Y25050D02*
Y25400D01*
Y25050D02*
X125350Y20200D01*
X120450Y32550D02*
X120500Y32600D01*
X123300D01*
X126900Y36200D02*
X130600D01*
X123300Y32600D02*
X126900Y36200D01*
X130600D02*
X131600Y37200D01*
X120450Y32200D02*
Y32550D01*
X86950Y32200D02*
X109850D01*
X86950Y25800D02*
X109850D01*
X76743Y26107D02*
X77050Y25800D01*
X72893Y26107D02*
X76743D01*
X67400Y31600D02*
X72893Y26107D01*
X71450Y37800D02*
X76300Y32950D01*
X76700Y32200D02*
X77050D01*
X60600Y37800D02*
X71450D01*
X76300Y32600D02*
X76700Y32200D01*
X76300Y32600D02*
Y32950D01*
X54150Y32200D02*
X54550Y32600D01*
X55400D01*
X60600Y37800D01*
X54150Y25800D02*
X54550Y25400D01*
X55900D02*
X59807Y21493D01*
X64907D01*
X66000Y20400D01*
X54550Y25400D02*
X55900D01*
X40400Y31800D02*
X44150D01*
X33000Y26400D02*
X35000D01*
X40400Y31800D01*
X11350Y25800D02*
Y32200D01*
X21450Y25800D02*
X21800D01*
X44150Y25400D02*
X44550Y25800D01*
X38600Y20200D02*
X43800Y25400D01*
X21800Y25800D02*
X22200Y25400D01*
Y22700D02*
X24700Y20200D01*
X22200Y22700D02*
Y25400D01*
X43800D02*
X44150D01*
X24700Y20200D02*
X38600D01*
X27300Y37600D02*
X33000D01*
X22300Y32600D02*
X27300Y37600D01*
X44150Y31800D02*
X44550Y32200D01*
D24*
X1781200Y45700D02*
X1958800D01*
X1781200Y12300D02*
X1958800D01*
X1584400Y45700D02*
X1762000D01*
X1584400Y12300D02*
X1762000D01*
X1387600Y45700D02*
X1565200D01*
X1387600Y12300D02*
X1565200D01*
X1190800Y45700D02*
X1368400D01*
X1190800Y12300D02*
X1368400D01*
X994000Y45700D02*
X1171600D01*
X994000Y12300D02*
X1171600D01*
X797200Y45700D02*
X974800D01*
X797200Y12300D02*
X974800D01*
X600400Y45700D02*
X778000D01*
X600400Y12300D02*
X778000D01*
X403600Y45700D02*
X581200D01*
X403600Y12300D02*
X581200D01*
X206800Y45700D02*
X384400D01*
X206800Y12300D02*
X384400D01*
X10000D02*
X187600D01*
X10000Y45700D02*
X187600D01*
D25*
X1776400Y28900D02*
X1782900D01*
X1579600D02*
X1586100D01*
X1382800D02*
X1389300D01*
X1186000D02*
X1192500D01*
X989200D02*
X995700D01*
X792400D02*
X798900D01*
X595600D02*
X602100D01*
X398800D02*
X405300D01*
X202000D02*
X208500D01*
X5200D02*
X11700D01*
D26*
X1762500Y46300D02*
X1779500D01*
X1762500Y11700D02*
X1779500D01*
X1565700Y46300D02*
X1582700D01*
X1565700Y11700D02*
X1582700D01*
X1369200Y46300D02*
X1386200D01*
X1369200Y11700D02*
X1386200D01*
X1172300Y46300D02*
X1189300D01*
X1172300Y11700D02*
X1189300D01*
X975300Y46300D02*
X992300D01*
X975300Y11700D02*
X992300D01*
X778300Y46300D02*
X795300D01*
X778300Y11700D02*
X795300D01*
X582300Y46300D02*
X599300D01*
X582300Y11700D02*
X599300D01*
X385300Y46300D02*
X402300D01*
X385300Y11700D02*
X402300D01*
X188300D02*
X205300D01*
X188300Y46300D02*
X205300D01*
D27*
X1771350Y28950D02*
D03*
D28*
X1574650D02*
D03*
X196950D02*
D03*
D29*
X1377700D02*
D03*
D30*
X1180950D02*
D03*
X787350D02*
D03*
X984150D02*
D03*
X393750D02*
D03*
D31*
X590550D02*
D03*
D32*
X1771200Y55400D02*
D03*
Y40000D02*
D03*
Y18000D02*
D03*
Y2600D02*
D03*
X1574400Y55400D02*
D03*
Y40000D02*
D03*
Y18000D02*
D03*
Y2600D02*
D03*
X1377600Y55400D02*
D03*
Y40000D02*
D03*
Y18000D02*
D03*
Y2600D02*
D03*
X1180800Y55400D02*
D03*
Y40000D02*
D03*
Y18000D02*
D03*
Y2600D02*
D03*
X984000Y55400D02*
D03*
Y40000D02*
D03*
Y18000D02*
D03*
Y2600D02*
D03*
X787200Y55400D02*
D03*
Y40000D02*
D03*
Y18000D02*
D03*
Y2600D02*
D03*
X590400Y55400D02*
D03*
Y40000D02*
D03*
Y18000D02*
D03*
Y2600D02*
D03*
X393600Y55400D02*
D03*
Y40000D02*
D03*
Y18000D02*
D03*
Y2600D02*
D03*
X196800D02*
D03*
Y18000D02*
D03*
Y40000D02*
D03*
Y55400D02*
D03*
D33*
X1776600Y33500D02*
D03*
X1767700D02*
D03*
X1964500D02*
D03*
X1579800D02*
D03*
X1570900D02*
D03*
X1775000Y28900D02*
D03*
X1766100D02*
D03*
X1962900D02*
D03*
X1578200D02*
D03*
X1569300D02*
D03*
X1374100Y33500D02*
D03*
X1186200D02*
D03*
X1383000D02*
D03*
X989400D02*
D03*
X980500D02*
D03*
X1177300D02*
D03*
X1372500Y28900D02*
D03*
X1184600D02*
D03*
X1381400D02*
D03*
X1175700D02*
D03*
X987800D02*
D03*
X1767700Y24300D02*
D03*
X1964500D02*
D03*
X1776600D02*
D03*
X1579800D02*
D03*
X1570900D02*
D03*
X1186200D02*
D03*
X1383000D02*
D03*
X1374100D02*
D03*
X980500D02*
D03*
X1177300D02*
D03*
X989400D02*
D03*
X792600Y33500D02*
D03*
X783700D02*
D03*
X595800D02*
D03*
X586900D02*
D03*
X791000Y28900D02*
D03*
X782100D02*
D03*
X978900D02*
D03*
X594200D02*
D03*
X585300D02*
D03*
X390100Y33500D02*
D03*
X202200D02*
D03*
X399000D02*
D03*
X193300D02*
D03*
X5400D02*
D03*
X397400Y28900D02*
D03*
X388500D02*
D03*
X191700D02*
D03*
X3800D02*
D03*
X200600D02*
D03*
X792600Y24300D02*
D03*
X783700D02*
D03*
X595800D02*
D03*
X390100D02*
D03*
X586900D02*
D03*
X399000D02*
D03*
X5400D02*
D03*
X202200D02*
D03*
X193300D02*
D03*
M02*
